<svg xmlns="http://www.w3.org/2000/svg" width="640" height="400" viewBox="0 0 640 400" fill="none" role="img" aria-label="06 — Data &amp; prédiction : « Voir venir. »"><title>06 — Data &amp; prédiction : « Voir venir. »</title><defs><clipPath id="card"><rect width="640" height="400" rx="22"/></clipPath></defs><g clip-path="url(#card)"><rect width="640" height="400" fill="#0a0a0a"/><g stroke="#edebe6" stroke-linecap="round"><path d="M524 136h0m-14 1h0m-1-2h0m-3 4h0m-206 24h0m2 0h0m5 2h0m0 0h0m1 1h0m127 0h0m4-2h0m2 1h0m3 2h0m1-3h0m4-3h0m6-1h0m3 1h0m0-4h0m7 4h0m2-4h0m2-7h0m16 1h0m2-1h0m1 0h0m3-1h0m5-5h0m2 1h0m1 1h0m1 1h0m13-1h0m4-2h0m13 3h0m4-2h0m1 4h0m7 1h0m4 4h0m4 4h0m1-1h0m3 6h0m0 2h0m1-3h0m4 4h0m5-5h0m0 3h0m4-1h0m0 1h0m4 2h0m35 12h0m-1 7h0m-13 1h0m-8-15h0m0 2h0m-4-4h0m0 3h0m-6 13h0m-3-17h0m-4 2h0m-1 4h0m-1 10h0m-4-12h0m0 5h0m-4-9h0m0 2h0m-65 12h0m0 0h0m-1 8h0m0-1h0m-26-17h0m-6 6h0m-12-5h0m-4 1h0m-4-6h0m-5 1h0m-4 9h0m-9-4h0m0-5h0m-3 1h0m-4 1h0m-6 6h0m0-5h0m-1 1h0m-2 10h0m0-10h0m-2 13h0m-1-13h0m-3 1h0m-2 11h0m-2-11h0m-1 1h0m-7 14h0m-2-3h0m-11-9h0m-3 1h0m-1 0h0m-2 0h0m-12-1h0m-1 1h0m-1-1h0m-1 0h0m0 1h0m-11-3h0m-7-1h0m-2 15h0m-4-1h0m-13-19h0m-15 21h0m-1-5h0m-14 28h0m7-15h0m12 13h0m7-10h0m3-3h0m17 4h0m4 10h0m1-6h0m9-4h0m0 5h0m1 8h0m3-13h0m5-6h0m1 14h0m1-11h0m6-3h0m1 14h0m3-14h0m1 14h0m1-11h0m2 8h0m2 3h0m8 5h0m4-17h0m11 7h0m8-8h0m9-1h0m2-4h0m8 8h0m3-7h0m3 2h0m3 3h0m1-4h0m56 18h0m2-13h0m92-5h0m8 9h0m9-3h0m5 6h0m0-11h0m-115 21h0" stroke-width="2.25" stroke-opacity="0.8"/><path d="M525 142h0m-4-1h0m-5-3h0m-2-4h0m-3 5h0m-10 2h0m-193 25h0m125 1h0m0-1h0m4 0h0m5-3h0m2 0h0m5-3h0m2 1h0m1 4h0m2-6h0m17-9h0m2 5h0m1 2h0m6-4h0m6-2h0m1-1h0m6 14h0m1-16h0m0 15h0m0-4h0m14-15h0m6 3h0m7-2h0m4-1h0m1 3h0m5 2h0m3-1h0m3-3h0m4 4h0m4 6h0m2 0h0m4 2h0m0 1h0m1-2h0m3 4h0m0 1h0m1-2h0m8 6h0m13 1h0m25 11h0m-4-5h0m-1 16h0m-3-11h0m-5 7h0m-5 7h0m-4-12h0m-9 3h0m-1 3h0m-3-13h0m0 4h0m-74 2h0m-39-2h0m-5 2h0m-14-1h0m-1 3h0m-5 1h0m-1-5h0m0 8h0m-2 3h0m-2 3h0m-3-7h0m-1 8h0m0-22h0m-5 4h0m0 14h0m-1-6h0m-1-5h0m-5 4h0m0 6h0m-1-13h0m-7 1h0m-4 8h0m-1-7h0m-6 1h0m-6 1h0m0 0h0m-1 10h0m-3-10h0m-4 0h0m-5 1h0m-2-1h0m-8 13h0m-3-12h0m-2-1h0m-16-2h0m-2 0h0m-3-1h0m-3-1h0m-1 0h0m-2 18h0m-7-21h0m-1 1h0m-4-2h0m-7 19h0m-3 3h0m-7-11h0m-1 8h0m-25 17h0m3-2h0m5 5h0m8-12h0m7 19h0m2-6h0m17-15h0m10 16h0m4-15h0m1 10h0m3-9h0m0 15h0m1-5h0m2 3h0m4 0h0m1-5h0m14 4h0m9-6h0m3 11h0m2 2h0m1-22h0m6 3h0m2 14h0m9-1h0m12-13h0m5 10h0m2 3h0m12-14h0m74 13h0m0-7h0m0-5h0m105-1h0m4 16h0m0-7h0m5-2h0m0-3h0m-114 17h0m-145 4h0" stroke-width="1.5" stroke-opacity="0.8"/><path d="M529 143h0m-1-5h0m-5-3h0m-3 3h0m0-2h0m-10 0h0m-8 6h0m-197 22h0m3 2h0m119 1h0m1 0h0m3 0h0m7-3h0m2 0h0m3-2h0m5-1h0m3 6h0m0-7h0m4 6h0m1-2h0m4-7h0m1-2h0m7 6h0m2-11h0m1 8h0m0-9h0m6 8h0m5-6h0m0 3h0m1 1h0m6-6h0m1 0h0m0-1h0m1-1h0m3 11h0m0 0h0m9-13h0m1 1h0m1 1h0m25 1h0m5 2h0m2-4h0m1 1h0m5 6h0m3 1h0m2 1h0m7 5h0m4 4h0m22 3h0m17 18h0m0-10h0m-5 8h0m-4-8h0m-8-1h0m-1 3h0m0 8h0m-1 6h0m-3-16h0m0 2h0m-1 11h0m-7-20h0m-74 4h0m-1 19h0m-1-2h0m-35-19h0m-3-1h0m-7 0h0m-2 2h0m-3-1h0m-1 10h0m-4-6h0m-2 11h0m-5-12h0m-4 0h0m-4 15h0m-1-19h0m-2 17h0m-1-5h0m0-11h0m-11 19h0m-7-8h0m-3-6h0m-2 0h0m-5 11h0m-6 3h0m-8 1h0m-2-3h0m-9-9h0m-1 12h0m-4-12h0m-7-1h0m-1 0h0m-1 0h0m-9-1h0m-4 14h0m-1-15h0m-1-1h0m-5 0h0m-5-2h0m-2 18h0m-6-21h0m-2 18h0m0-18h0m-21 22h0m-1-5h0m-11 25h0m2-6h0m1-6h0m2-7h0m1 15h0m1 3h0m1-10h0m13-6h0m1 4h0m1 4h0m7 8h0m2-6h0m0 9h0m4-8h0m1 4h0m3 6h0m3-11h0m9-4h0m8 1h0m1-6h0m6-3h0m6 23h0m4-13h0m3 11h0m2 2h0m1-10h0m7 10h0m5 0h0m2-19h0m0 16h0m2-3h0m2-3h0m4-6h0m1 11h0m1-19h0m12 18h0m1-9h0m3 2h0m1-9h0m4 15h0m32-17h0m48 23h0m0-4h0m0-2h0m87-11h0m10-5h0m-212 25h0m-22 0h0m-26-2h0" stroke-width="2" stroke-opacity="0.8"/><path d="M533 141h0m-16 2h0m-5 0h0m-8-6h0m-1 1h0m-199 26h0m7 3h0m119-1h0m8-1h0m5-2h0m5-2h0m1 0h0m5 1h0m0-3h0m5 0h0m0-3h0m5-2h0m1-1h0m1 6h0m3-3h0m2-7h0m3 4h0m3 0h0m5 5h0m10-9h0m2 16h0m1-21h0m15 3h0m8-1h0m16 1h0m4 2h0m1 3h0m3-1h0m1 2h0m3 1h0m1 1h0m0 0h0m2 6h0m4 6h0m6-2h0m1-4h0m0 1h0m3 5h0m39 23h0m-5 1h0m-3-17h0m-1 6h0m0 9h0m-4-17h0m-1 18h0m-4-2h0m-4-6h0m-4-10h0m0 8h0m-1 2h0m-3-12h0m-6 8h0m-72-7h0m-1 3h0m-1 16h0m-32-19h0m-1 11h0m-7-3h0m-3-9h0m-3 6h0m0 8h0m-1-5h0m-3-2h0m-1-5h0m-1 17h0m-4-7h0m-3 6h0m-3-2h0m-5-4h0m-2-11h0m0 14h0m-3-16h0m-4 9h0m-4 1h0m-14-5h0m-6 15h0m-5-12h0m-5 0h0m-13 1h0m-1 0h0m0 0h0m-15-1h0m-5 0h0m-5-1h0m-2 0h0m-5-1h0m-3-1h0m-1-1h0m-6-1h0m-4 13h0m-9 5h0m-6-6h0m-2 3h0m-2-5h0m-6 1h0m-20 24h0m2-7h0m1 4h0m12 0h0m7-12h0m3 18h0m1 4h0m8-11h0m1 4h0m6 4h0m8 2h0m3-3h0m2-11h0m4 15h0m2-11h0m2-3h0m3 12h0m4-20h0m0 6h0m3 7h0m1 8h0m9 0h0m4-5h0m3-15h0m6 9h0m2-3h0m2 3h0m2-3h0m2 8h0m2-9h0m2 14h0m3 2h0m1-19h0m2 2h0m3 3h0m0 11h0m2-3h0m3 2h0m1-9h0m14 4h0m10-11h0m8-2h0m60 6h0m1 17h0m96-18h0m9 8h0m0-7h0m5-5h0m4 20h0m0-21h0m-235 26h0m-29 2h0m-4-1h0m-6-3h0m-19 2h0m-4-1h0" stroke-width="1.75" stroke-opacity="0.8"/><path d="M532 140h0m-7-1h0m-1-2h0m-5-4h0m-4 3h0m-3 5h0m-7-3h0m-7 3h0m-197 21h0m2 2h0m6 2h0m3 1h0m115 0h0m1 0h0m0 0h0m17-5h0m4-2h0m1 0h0m8 7h0m3-4h0m1-8h0m4 11h0m1-3h0m2 3h0m2-5h0m1-13h0m3 8h0m6-4h0m2 1h0m1-1h0m5-3h0m4-3h0m1-1h0m9-1h0m5 1h0m14 1h0m11-2h0m5 4h0m4 2h0m1 2h0m2 4h0m1-2h0m5 3h0m8 6h0m1-3h0m13 4h0m33 24h0m-17-7h0m-4-13h0m0 8h0m-1 6h0m-12-10h0m-1 7h0m-9-5h0m-69 7h0m-26-12h0m-2 7h0m-2-5h0m-5 3h0m-3-1h0m-7 8h0m0 9h0m-9-6h0m-16-16h0m-1 12h0m-2-11h0m-2 6h0m-1 14h0m0-19h0m-6 18h0m-1-6h0m-1 9h0m-5-18h0m-2 11h0m0 6h0m-1-16h0m-1 13h0m0-13h0m-2 16h0m-1-16h0m-1 14h0m-4-6h0m-6-6h0m-2 1h0m-2 0h0m-2 13h0m-2-13h0m-5 1h0m0 0h0m-5 12h0m-3-12h0m-5 0h0m-1 0h0m-5 0h0m-10-2h0m0 0h0m-2 15h0m-5-17h0m-2 0h0m-4-1h0m-5 14h0m-2-16h0m-6 13h0m-27 5h0m-22 19h0m17 1h0m2-6h0m5 5h0m12 0h0m3-13h0m1 14h0m1-16h0m9 2h0m2-2h0m2 4h0m1 3h0m4 1h0m4 7h0m5-11h0m5 1h0m0 9h0m8-8h0m2 16h0m2-22h0m0 6h0m3 6h0m1-12h0m2 3h0m1 9h0m0 5h0m5-11h0m6-3h0m6-3h0m0 11h0m6-9h0m2-3h0m0 11h0m9-1h0m7 2h0m3-12h0m3 14h0m2-9h0m1-4h0m5 5h0m1 6h0m75 4h0m95-4h0m5-5h0m1-7h0m9 5h0m-235 21h0m-9 0h0m-33 0h0" stroke-width="2.5" stroke-opacity="0.8"/><path d="M316 159h0m6 6h0m6-10h0m1-8h0m2 5h0m0-8h0m7 18h0m2-3h0m2-12h0m3 17h0m29-8h0m2 5h0m2 4h0m3-8h0m2 4h0m2-4h0m7 1h0m6 3h0m0-7h0m6 11h0m4-1h0m5-10h0m1 13h0m1-10h0m1 7h0m9-5h0m11-6h0m3 2h0m5-2h0m3 2h0m10 1h0m13-2h0m-53 16h0m-26 6h0m0-7h0m-2 4h0m-5 10h0m-8 1h0m-2-11h0m-15-2h0m-3 11h0m-2 4h0m-2 3h0m-1-11h0m-3 10h0m-1-11h0m-7 10h0m-1-4h0m-2-5h0m-8-2h0m-5-6h0m-5 6h0m-8-3h0" stroke-width="2.5" stroke-opacity="0.7"/><path d="M533 142h0m-4-3h0m-13 2h0m-2-6h0m-8 5h0m-6 1h0m-197 23h0m9 3h0m123-2h0m6-1h0m6-2h0m1 4h0m1-3h0m2-3h0m8 5h0m0-9h0m3 4h0m2-4h0m2-3h0m0 0h0m3 6h0m3-3h0m6-1h0m2 0h0m5-4h0m7-4h0m1 0h0m1 0h0m1 1h0m1 0h0m1-3h0m12 1h0m18 2h0m12 3h0m2-2h0m2 3h0m13 6h0m8 5h0m38 10h0m-4 5h0m-4-7h0m-5 7h0m-10 10h0m-5 3h0m-3-14h0m-1 11h0m-4-7h0m-3-12h0m0 1h0m-2 9h0m-3-7h0m-1 2h0m-63-6h0m-1 12h0m-22-11h0m-7-1h0m-2 7h0m-11 8h0m-2 3h0m-6-4h0m-4-7h0m-1-4h0m-4 1h0m-2 11h0m-5-4h0m-3-2h0m-3-8h0m-1 8h0m-1-5h0m-6 18h0m-6-18h0m-2 5h0m-1 4h0m-4-7h0m0 0h0m-4 0h0m-2 17h0m-8-15h0m-7 1h0m-1 10h0m-1-9h0m-5 12h0m-5-12h0m-7 0h0m-5 0h0m-1-1h0m-8-1h0m-1 0h0m-1 0h0m-9-2h0m-4 0h0m-1-1h0m-2 0h0m0-1h0m-1 0h0m-3 0h0m-2-2h0m-2 18h0m-3 3h0m-5-6h0m-38 24h0m4 1h0m7-16h0m6 20h0m3-3h0m4-12h0m6 5h0m12 4h0m3 6h0m3-11h0m3-9h0m2 4h0m0 9h0m13-13h0m6 18h0m2-17h0m0 15h0m4-14h0m1 14h0m2-8h0m7-9h0m0 6h0m5 9h0m1-6h0m2 3h0m10-4h0m11 13h0m2-9h0m3-11h0m1 5h0m4-1h0m9 4h0m9-1h0m2-4h0m7 2h0m9-2h0m2-4h0m144 8h0m5-1h0m4 6h0m5 3h0m4-2h0m-250 13h0m-2-2h0m-13-1h0m-15 0h0m-21-1h0" stroke-width="2.75" stroke-opacity="0.8"/><path d="M529 141h0m-8 2h0m-14-1h0m-207 21h0m5 1h0m5 2h0m3 1h0m122-1h0m5-2h0m11-4h0m2-1h0m9 6h0m2-2h0m6 0h0m2 2h0m1-6h0m0 4h0m0-15h0m3 7h0m2-3h0m0 7h0m1-5h0m0 3h0m5-4h0m2-3h0m2 1h0m25-6h0m5 2h0m4 0h0m4-2h0m4 0h0m7 0h0m2 5h0m11 8h0m0 2h0m18 6h0m39 15h0m-5 6h0m0-4h0m0-3h0m-4 1h0m-9 6h0m-4-8h0m-1 6h0m-7-17h0m-1 2h0m-4 4h0m-78-2h0m-1 8h0m0-6h0m-1 17h0m0-6h0m-31-17h0m-6 13h0m-1 4h0m-3-11h0m-6 14h0m-3-2h0m-4-8h0m-1 9h0m-1 4h0m-4-16h0m-15 9h0m-1-14h0m-4 15h0m-4-12h0m-6 1h0m-15 2h0m-8 1h0m-2 0h0m-18 1h0m-3 12h0m-2-12h0m-4-1h0m-2 0h0m-5-1h0m-2 0h0m-7-2h0m-2 0h0m-10-4h0m-2 0h0m-3-1h0m-25 24h0m3 9h0m1 4h0m3-3h0m2-6h0m0 10h0m6 7h0m1-8h0m1-7h0m1 13h0m2-15h0m6 5h0m2-3h0m2 13h0m1-6h0m9-14h0m4 1h0m7 22h0m2-11h0m8 1h0m1 8h0m17 0h0m3-20h0m0 12h0m2 2h0m0 5h0m6-19h0m0 11h0m2-3h0m5 5h0m2-3h0m4-6h0m6-4h0m2 2h0m5 5h0m4-1h0m10 5h0m3-8h0m67 11h0m0-9h0m91-1h0m10-1h0m4 6h0m9 8h0m-244 8h0m-17-1h0m-4 0h0m-12 1h0m-7 2h0m-4-1h0m-2-3h0" stroke-width="3" stroke-opacity="0.8"/><path d="M314 162h0m9-13h0m2-3h0m5 14h0m9 7h0m10-2h0m2-12h0m4 1h0m4 0h0m3 1h0m10-3h0m15 1h0m4 8h0m3-7h0m6 4h0m8-1h0m1-3h0m1 13h0m0-6h0m1-4h0m3 4h0m4 5h0m4 0h0m5-10h0m1-3h0m21 4h0m7 1h0m15-6h0m5-2h0m4 0h0m9-1h0m-68 20h0m-14 5h0m-13 5h0m-6-3h0m-6 4h0m0-7h0m-2-4h0m-2 4h0m-4 7h0m-4-8h0m-6-4h0m-13 2h0m-2 3h0m-2 11h0m-2-12h0m-1 16h0m-1-12h0m-13-8h0m-13 4h0m-3 11h0m-2-5h0m-3-10h0" stroke-width="2" stroke-opacity="0.7"/><path d="M327 143h0m-15 22h0m23-20h0m1 4h0m11 11h0m1-8h0m1 5h0m8 1h0m0-8h0m2 13h0m3 0h0m6-3h0m0-9h0m2 13h0m2-4h0m7 1h0m6 4h0m2-4h0m10 4h0m5-11h0m19 6h0m7 2h0m1-3h0m1 5h0m1-8h0m1-3h0m0 9h0m8-9h0m23 0h0m3 2h0m1-2h0m1-2h0m11 0h0m18-3h0m-72 20h0m-27 11h0m-15-10h0m-15 7h0m-6 11h0m-2-4h0m-3-8h0m-7 10h0m-5-5h0m-13 5h0m-17-10h0m-5 6h0m-3-10h0m-3 3h0m-2 3h0" stroke-width="1.5" stroke-opacity="0.7"/><path d="M319 156h0m7 3h0m1-8h0m5 14h0m2-12h0m2 4h0m2-11h0m6 14h0m20-1h0m2 5h0m13-11h0m2 12h0m9-12h0m3 12h0m7 0h0m2-4h0m2-3h0m8 6h0m8-1h0m5-10h0m10 3h0m13-4h0m5 4h0m6-2h0m1-2h0m33-3h0m-92 29h0m-14-9h0m-15 7h0m-6 11h0m-2-11h0m-2 3h0m-2-4h0m-2 11h0m-21-16h0m-2 12h0m0-8h0m-4 6h0m0-7h0m-10 0h0m-15 6h0" stroke-width="2.75" stroke-opacity="0.7"/><path d="M434 164h0m10-4h0m39-9h0m5-1h0m-85 25h0m-18-2h0m-7 7h0m-20-1h0m-5 3h0m-37-3h0" stroke-width="3" stroke-opacity="0.7"/><path d="M318 164h0m5-7h0m2-3h0m3 9h0m4-7h0m4 10h0m6-3h0m4-7h0m0-9h0m7 19h0m0-9h0m0-8h0m7 1h0m1 17h0m0-8h0m13 6h0m1-13h0m14 13h0m17-4h0m11-7h0m6 3h0m10 2h0m8-1h0m2-3h0m9 4h0m3-5h0m1-2h0m28-2h0m-73 23h0m-2-2h0m-6-3h0m-4 7h0m0-7h0m-2 4h0m-2-3h0m-5 10h0m-4 1h0m-2-4h0m-12 8h0m-2-4h0m-2 3h0m0-15h0m-2 12h0m0-8h0m-11 6h0m-2-4h0m-10 10h0m0-16h0m-2 3h0m-2 4h0m-5-6h0m-1 8h0m-6 2h0m0-8h0m-2 4h0m-2 3h0m-10-8h0" stroke-width="1.75" stroke-opacity="0.7"/><path d="M320 160h0m1-7h0m3 9h0m2 5h0m12-13h0m4 1h0m15 12h0m9-12h0m23 2h0m5 4h0m11-7h0m14 3h0m5 6h0m2 2h0m10-4h0m2 2h0m2-3h0m5-3h0m6-3h0m1-2h0m10 3h0m2-4h0m41-4h0m-92 23h0m-6-2h0m-2 3h0m-4 1h0m-8 0h0m-13 11h0m-4-7h0m0-7h0m-4 0h0m-8 14h0m-2-11h0m-7-2h0m-6 11h0m-2-12h0m-6 10h0m-5 7h0m-12-4h0m-16-6h0" stroke-width="2.25" stroke-opacity="0.7"/><path d="M316 167h0m17-19h0m1 13h0m6-11h0m4 1h0m5-3h0m2 13h0m4 1h0m9-11h0m6 5h0m7 1h0m6-4h0m13 5h0m22 2h0m3-6h0m16 4h0m11 1h0m24-8h0m3 1h0m26-4h0m-106 28h0m-15 0h0m-10 11h0m-42-3h0m-8-3h0m0-13h0" stroke-width="1.25" stroke-opacity="0.7"/><path d="M528 137h0m-9-2h0m-20 5h0m-55 23h0m2-1h0m0 0h0m7-3h0m2-1h0m7-3h0m6-4h0m1 0h0m6 9h0m1-2h0m0 7h0m1-3h0m17-1h0m1-17h0m55 15h0m4 3h0m-61 15h0m0-5h0m-1 19h0m-23-18h0m-12 4h0m-5-5h0m-23 17h0m-6-20h0m-13 3h0m-23 5h0m-105 20h0m1 4h0m16 11h0m3-11h0m10 14h0m18-2h0m9 1h0m5-4h0m7-2h0m8 0h0m32 0h0m9-1h0m15-5h0m164-8h0m-219 22h0m-26 3h0m-30-2h0" stroke-width="3.25" stroke-opacity="0.8"/><path d="M429 167h0m34-9h0m37-11h0m107 28h0m-17-5h0m-159 0h0m-4 0h0m-33 15h0m-6-2h0m-11-6h0m-7 1h0m-15-1h0m-34-6h0m-6-2h0m-18 26h0m95-1h0" stroke-width="1.25" stroke-opacity="0.8"/><path d="M515 140h0m-2-7h0m-1 1h0m-4 1h0m-7 6h0m-4 1h0m-2-6h0m0-5h0m0-7h0m-12 42h0m2-9h0m1-4h0m3 4h0m5-7h0m0 3h0m1-3h0m0-2h0m44 7h0m5 5h0m13 18h0m-15-9h0m-3 18h0m-3-12h0m-23 12h0m-18-17h0m-5 3h0m-10 6h0m-1 6h0m-79 28h0m57-13h0m6 15h0m4-19h0m14 2h0m5-2h0m10-1h0m15 1h0m2 19h0m39-3h0m0-6h0m12-7h0m10-1h0m13 13h0m0-4h0m5 6h0m9 21h0m-6 5h0m-4-22h0m-10 7h0m-1 14h0m0-5h0m-4-11h0m-9-6h0m-2 10h0m-22 8h0m-72-13h0m-5 0h0m-86 3h0m-54-4h0m243 24h0m5-3h0m26 0h0" stroke-width="3" stroke-opacity="0.9"/><path d="M532 140h0m-5-2h0m-16-1h0m-5 1h0m-11 4h0m0-14h0m0 0h0m-5 5h0m-1 0h0m-7 7h0m8 13h0m13 0h0m25 6h0m7-10h0m14 41h0m-5 1h0m-19-17h0m-17 12h0m-11 0h0m-16-14h0m-8 2h0m-8 13h0m-8 0h0m-61 27h0m18-2h0m11-5h0m6-5h0m4 11h0m5-13h0m2 8h0m7 4h0m5-1h0m0-15h0m10 13h0m10-2h0m15-3h0m12-10h0m9 11h0m11-5h0m20 12h0m8-16h0m8 14h0m2-11h0m8 13h0m10-3h0m29 8h0m0 7h0m-1 12h0m-4-14h0m-5-6h0m-5 9h0m-5 2h0m0-4h0m-4-7h0m-11 8h0m-2 15h0m-9-15h0m-11 6h0m-1 6h0m-14-13h0m-73-1h0m-5 0h0m-39 1h0m-42 1h0m-6-3h0m-9 0h0m-20 1h0m-9-1h0m253 28h0m1-9h0m10 4h0" stroke-width="2" stroke-opacity="0.9"/><path d="M502 139h0m-7-1h0m-3-7h0m-4 4h0m0 28h0m5-4h0m5-3h0m4 5h0m12-16h0m5 2h0m5 2h0m5 4h0m7-8h0m16 27h0m-6 8h0m-1 5h0m-21-3h0m-4-11h0m-6 7h0m-22 9h0m-3-7h0m-3-11h0m-71 39h0m1 7h0m16-6h0m2-4h0m109-7h0m16-3h0m10 3h0m3 12h0m1-4h0m0-4h0m28 13h0m4 13h0m-9-8h0m-6 17h0m-4-6h0m-1 4h0m-10 1h0m-20-9h0m-10-6h0m-10-5h0m-6 5h0m-27 0h0m-16-1h0m-38-3h0m-21 6h0m-5 0h0m-14 0h0m-10-6h0m-9 7h0m-4 0h0m-1-7h0m-13 7h0m-16-4h0m-7 3h0m231 20h0m6 1h0m5 7h0m0-9h0m15 13h0" stroke-width="2.5" stroke-opacity="0.9"/><path d="M527 137h0m-1 3h0m-31-6h0m0-2h0m-5 1h0m-4 4h0m-2 2h0m-1 0h0m-3 3h0m-5 4h0m4 19h0m1-4h0m4 0h0m12 2h0m3-13h0m8 9h0m10 2h0m1-8h0m4 10h0m1-7h0m9 8h0m7-6h0m2-8h0m3 8h0m4 8h0m7 24h0m0-5h0m-4-5h0m-16 2h0m-2 8h0m-2-20h0m-12 10h0m-1 8h0m-16-3h0m-15 3h0m-5 2h0m-22-1h0m-7 0h0m-44 23h0m17-9h0m3 3h0m8 3h0m3 4h0m2-17h0m3 3h0m4-1h0m4 3h0m6 9h0m3-12h0m2-5h0m5 15h0m8-16h0m1 21h0m13-18h0m7 17h0m18-15h0m4 11h0m26 7h0m41 0h0m5-5h0m9 20h0m-20-10h0m-4-2h0m-1 8h0m-36-7h0m-2 13h0m-16-6h0m-30-6h0m-34-4h0m-5 0h0m-2 6h0m-5 0h0m-14 1h0m-34 1h0m-2-4h0m-2 4h0m-5-7h0m-11 4h0m-21 2h0m-22-2h0m265 33h0m5-14h0m0 7h0" stroke-width="1.75" stroke-opacity="0.9"/><path d="M522 135h0m-1 3h0m-14-2h0m-12-4h0m-5 1h0m-5 5h0m-2 1h0m-8 7h0m16 19h0m3-12h0m10-6h0m4 5h0m4 7h0m13-15h0m5 4h0m6-2h0m24 44h0m-10-5h0m-3-11h0m0-4h0m-7 10h0m-30-12h0m-11 9h0m-5 1h0m-19 4h0m-8 0h0m-4-2h0m-36 30h0m3 4h0m5-13h0m10 11h0m1-5h0m20-4h0m22 9h0m20 1h0m19-19h0m31 10h0m10 3h0m1-12h0m5 0h0m31 37h0m-4-6h0m-30-7h0m-1 10h0m-42-1h0m-11-3h0m-79-7h0m-24 1h0m-2 4h0m-2-4h0m-3-3h0m-41 7h0m-4 0h0m-18-1h0m214 18h0m32 6h0m5 2h0m5-2h0m5 5h0" stroke-width="2.75" stroke-opacity="0.9"/><path d="M523 134h0m-5-1h0m-1 1h0m-12 8h0m-10-7h0m-1 8h0m-3-12h0m0 0h0m-12 12h0m12 6h0m3 7h0m1-8h0m18 4h0m17-8h0m4 9h0m31 38h0m-28-22h0m-8 17h0m-6 5h0m-18-23h0m-1 8h0m-20 7h0m-10 5h0m-3-9h0m-15 12h0m-51 22h0m13-2h0m8 3h0m12-10h0m13 2h0m0-13h0m10 11h0m11-10h0m1 20h0m3-15h0m18 4h0m31 7h0m6-5h0m5 3h0m18-13h0m18 20h0m10-3h0m1-8h0m23 17h0m-6 16h0m-9-4h0m0-4h0m-10 0h0m-17 8h0m-8-16h0m-5-3h0m-7 10h0m-5-3h0m-20-9h0m-38 4h0m-99 1h0m-9 0h0m-9 0h0m241 22h0" stroke-width="3.25" stroke-opacity="0.9"/><path d="M531 142h0m-11 0h0m-4-5h0m-25-5h0m-1 1h0m-6 6h0m-1 0h0m-4 3h0m-6 6h0m4-4h0m32 2h0m17 20h0m7-8h0m7-6h0m3 12h0m6 0h0m16 23h0m-5-1h0m-8-10h0m-11-2h0m-11 4h0m-30-9h0m-26 0h0m-6 8h0m-48 30h0m1 8h0m2-4h0m23-16h0m2 7h0m31 3h0m4 7h0m47 1h0m2-16h0m5 4h0m5 4h0m6-3h0m5-2h0m3 15h0m6-2h0m0-5h0m1-5h0m1-8h0m4 8h0m10-2h0m4 7h0m14 4h0m-21 19h0m-5 3h0m-5-3h0m-6 4h0m-6 3h0m-20-8h0m-9-12h0m-48 2h0m-33-3h0m-19 2h0m-21 4h0m-10-6h0m-6 3h0m-7-2h0m-27 5h0m210 19h0m11 4h0m5 1h0" stroke-width="2.25" stroke-opacity="0.9"/><path d="M510 141h0m28 22h0m-23 6h0m-6 8h0m-24-1h0m-16 14h0m-13 15h0m3-11h0m9 20h0m3-13h0m22 11h0m7-9h0m5 1h0m1-9h0m20 7h0m12-8h0m9 14h0m30 5h0m24 5h0m-5 13h0m-1 4h0m-4-14h0m-5-2h0m-20 2h0m-16 3h0m-43-2h0m-71 1h0m-3-5h0m-4 0h0m-10 1h0m-14 1h0m-14 0h0m204 32h0" stroke-width="3.5" stroke-opacity="0.9"/><path d="M503 212h0m51 20h0m-57-12h0m103 30h0" stroke-width="3.75" stroke-opacity="0.9"/><path d="M495 133h0m0-1h0m-1 23h0m2-10h0m4 0h0m70 46h0m-9-8h0m-5-2h0m-3-12h0m-75 1h0m-2 6h0m-6 8h0m-8 1h0m-19 18h0m41 1h0m31 2h0m63-1h0m18 19h0m0 3h0m-35-9h0m-1 11h0m-48-6h0m-71 0h0m-29-7h0m-9 0h0m-3 4h0" stroke-width="1.5" stroke-opacity="0.9"/><path d="M361 19h0m250 39h0m-452 49h0m153 31h0m-48-17h0m-13 11h0m-68 13h0m123 5h0m-189 21h0m165 23h0m245 25h0m-86 14h0m-253 12h0m-44 39h0m165 19h0m308 2h0m-580 51h0m337-1h0m260-11h0m-555 38h0m-44-3h0" stroke-width="1.5" stroke-opacity="0.2"/><path d="M140 51h0m76 13h0m118 4h0m301 38h0m-361 16h0m-131 15h0m123 30h0m189 8h0m-219 8h0m-100 7h0m63 18h0m408 8h0m-94 0h0m-79 4h0m-178 22h0m97 11h0m101-6h0m18 60h0m-26 41h0m-7 41h0" stroke-width="1.25" stroke-opacity="0.2"/><path d="M302 20h0m184-9h0m-196 47h0m139 4h0m115 33h0m-160-20h0m-85 12h0m-53-5h0m163 34h0m69-16h0m14 49h0m17 2h0m125 8h0m-115 29h0m-36-6h0m-206-6h0m284 32h0m9 4h0m68-18h0m-117 35h0m-257-8h0m-40-2h0m245 43h0m-313 21h0" stroke-width="1" stroke-opacity="0.1"/><path d="M422 13h0m79-12h0m-213 60h0m49 13h0m-23 24h0m61 101h0m132 95h0m-127 23h0m-101 1h0m-137 8h0" stroke-width="0.75" stroke-opacity="0.2"/><path d="M464 108h0m160 12h0m-132 23h0m-178 9h0m106 14h0m107 36h0" stroke-width="0.5" stroke-opacity="0.1"/><path d="M389 35h0m-193 35h0m19-12h0m172-4h0m126 8h0m-26 55h0m93-9h0m-154 75h0m-199-5h0m272 26h0m-290 19h0m-17 10h0" stroke-width="1.25" stroke-opacity="0.1"/><path d="M283 21h0m322-7h0m-448 42h0m302 53h0m-277 67h0m133 182h0" stroke-width="1.75" stroke-opacity="0.3"/><path d="M303 10h0m300 10h0m-11 22h0m-109 51h0m-332 50h0m370 13h0" stroke-width="2" stroke-opacity="0.3"/><path d="M275 23h0m45-16h0m302 11h0m-227 6h0m-200 52h0m-3 3h0m329 38h0m-242 8h0m-168 10h0m-25-13h0m125 89h0m400 30h0m-291 43h0m-257-12h0m46 16h0m387 58h0m52 2h0m-281 50h0" stroke-width="1" stroke-opacity="0.2"/><path d="M548 126h0" stroke-width="3" stroke-opacity="0.3"/><path d="M417 21h0m194-12h0m-150 33h0m-54 44h0m-145 3h0m223 11h0m101 22h0m-273 14h0m171 18h0m61 9h0m-210 18h0m-30-13h0m-59 40h0m134 11h0m141 22h0m21 64h0" stroke-width="0.75" stroke-opacity="0.1"/><path d="M345 47h0m-136 161h0" stroke-width="1.25" stroke-opacity="0.3"/><path d="M445 142h0" stroke-width="2.25" stroke-opacity="0.3"/><path d="M304 203h0m243-8h0m-193 174h0m94 18h0" stroke-width="1.75" stroke-opacity="0.2"/><path d="M496 195h0" stroke-width="2.75" stroke-opacity="0.3"/><path d="M280 141h0" stroke-width="1.5" stroke-opacity="0.1"/><path d="M253 132h0" stroke-width="1.5" stroke-opacity="0.3"/></g><g stroke="#ff5a1f" stroke-linecap="round"><path d="M516 117h0m7 2h0m-16 1h0m-4 2h0m-4 3h0m51 24h0m4 4h0m31 30h0m-3-2h0m22 13h0m4 2h0" stroke-width="4.25" stroke-opacity="0.9"/><path d="M519 118h0m-17 5h0m46 23h0m4 6h0m5 5h0m37 31h0m-8-4h0m-15-12h0m-1-1h0m30 21h0m1 0h0m2 2h0m5 2h0" stroke-width="2" stroke-opacity="0.9"/><path d="M510 119h0m35 21h0m-10-12h0m-1-1h0m-5-5h0m-26 1h0m-1 0h0m50 28h0m3 4h0m3 4h0m2 3h0m16 15h0m-3-2h0m35 21h0" stroke-width="2.25" stroke-opacity="0.9"/><path d="M509 119h0m6-2h0m6 2h0m24 21h0m-5-5h0m-13-13h0m-24 0h0m95 69h0m-16-10h0m25 15h0" stroke-width="2.75" stroke-opacity="0.9"/><path d="M540 134h0m8 11h0m1 2h0m34 35h0m24 14h0" stroke-width="3.5" stroke-opacity="0.9"/><path d="M512 118h0m31 22h0m-2-3h0m0-1h0m-2-2h0m-39-10h0m0 0h0m50 23h0m14 19h0m25 20h0m-18-13h0m-1-1h0m35 23h0" stroke-width="2.5" stroke-opacity="0.9"/><path d="M513 118h0m-9 3h0m53 36h0m39 33h0m-7-4h0m-11-8h0m26 16h0" stroke-width="3.25" stroke-opacity="0.9"/><path d="M527 122h0m0-1h0m-21 0h0m-10 6h0m59 28h0m0 1h0m2 2h0m30 26h0m-6-3h0m-2-2h0m-4-4h0m-4-2h0m32 20h0" stroke-width="4" stroke-opacity="0.9"/><path d="M509 119h0m10-1h0m26 23h0m-6-7h0m0-1h0m-2-2h0m-41-4h0m57 25h0m7 9h0m1 2h0m3 3h0m20 16h0m-13-9h0m-3-3h0m34 23h0" stroke-width="3.75" stroke-opacity="0.9"/><path d="M543 139h0m9 12h0m45 39h0m-5-2h0m0 0h0m-4-2h0m-2-2h0m-6-4h0m22 13h0" stroke-width="3" stroke-opacity="0.9"/><path d="M512 118h0m20 7h0m-4-3h0m-3-2h0m-28 6h0m50 19h0m0-1h0m3 4h0m41 39h0" stroke-width="4.5" stroke-opacity="0.9"/></g><g opacity="0" stroke="#ff5a1f" stroke-linecap="round"><animate attributeName="opacity" values="0;0;1;.45;0;0" keyTimes="0;.025;0.05;.07;.13;1" dur="12.5s" begin="-7.1s" repeatCount="indefinite"/><defs><path id="s412" d="M607 175h0m-5-2h0m-4-1h0m-1 19h0m-3-20h0m-1 18h0m-1 21h0m4 2h0m5 3h0m1-22h0m4 2h0m0 22h0m-6 20h0m-5-2h0m-4-2h0m14 7h0"/></defs><use href="#s412" stroke-width="9.6" stroke-opacity=".16"/><use href="#s412" stroke-width="4.1"/></g><g opacity="0" stroke="#ff5a1f" stroke-linecap="round"><animate attributeName="opacity" values="0;0;1;.45;0;0" keyTimes="0;.025;0.05;.07;.13;1" dur="12.5s" begin="-7.5s" repeatCount="indefinite"/><defs><path id="s413" d="M577 166h0m4 1h0m9 3h0m-1 17h0m-4-19h0m-1 17h0m-4-3h0m-4-2h0m-2 18h0m4 3h0m5 3h0m4 3h0m-1 24h0m-5-2h0m-5-3h0m-5-2h0"/></defs><use href="#s413" stroke-width="10" stroke-opacity=".16"/><use href="#s413" stroke-width="4.3"/></g><g opacity="0" stroke="#ff5a1f" stroke-linecap="round"><animate attributeName="opacity" values="0;0;1;.45;0;0" keyTimes="0;.025;0.05;.07;.13;1" dur="12.5s" begin="-7.9s" repeatCount="indefinite"/><defs><path id="s414" d="M554 162h0m2-4h0m3 8h0m1-6h0m4 1h0m4 2h0m5 1h0m-2 13h0m-4-3h0m-2 17h0m-2-21h0m-3 16h0m-4-5h0m-4-5h0m-5 32h0m5 4h0m4 3h0m13-20h0m-3 26h0m-5-3h0"/></defs><use href="#s414" stroke-width="10.7" stroke-opacity=".16"/><use href="#s414" stroke-width="4.6"/></g><g opacity="0" stroke="#ff5a1f" stroke-linecap="round"><animate attributeName="opacity" values="0;0;1;.45;0;0" keyTimes="0;.025;0.05;.07;.13;1" dur="12.5s" begin="-8.2s" repeatCount="indefinite"/><defs><path id="s415" d="M534 153h0m3-7h0m2 6h0m0 6h0m3-8h0m1 3h0m0 11h0m3-10h0m2 1h0m2 3h0m2-2h0m-5 14h0m-20 24h0m5 3h0m5 4h0m5 4h0"/></defs><use href="#s415" stroke-width="9.3" stroke-opacity=".16"/><use href="#s415" stroke-width="4"/></g><g opacity="0" stroke="#ff5a1f" stroke-linecap="round"><animate attributeName="opacity" values="0;0;1;.45;0;0" keyTimes="0;.025;0.05;.07;.13;1" dur="12.5s" begin="-8.6s" repeatCount="indefinite"/><defs><path id="s416" d="M533 142h0m-4-3h0m-5-2h0m-4-1h0m0 6h0m-5-6h0m0 4h0m-5 1h0m8 6h0m4 0h0m3-3h0m2 4h0m3 0h0m1 1h0m4 1h0m-12 41h0m-5-3h0m-5-1h0m-5-1h0m-6-1h0"/></defs><use href="#s416" stroke-width="10.7" stroke-opacity=".16"/><use href="#s416" stroke-width="4.6"/></g><g opacity="0" stroke="#ff5a1f" stroke-linecap="round"><animate attributeName="opacity" values="0;0;1;.45;0;0" keyTimes="0;.025;0.05;.07;.13;1" dur="12.5s" begin="-9s" repeatCount="indefinite"/><defs><path id="s417" d="M510 137h0m-4 2h0m-1 3h0m-4-1h0m-11 12h0m5-5h0m1-4h0m4 1h0m1 3h0m4-1h0m5 0h0m4 0h0m-17 39h0m-5 1h0m-5 1h0m-5 2h0"/></defs><use href="#s417" stroke-width="8.6" stroke-opacity=".16"/><use href="#s417" stroke-width="3.7"/></g><g opacity="0" stroke="#ff5a1f" stroke-linecap="round"><animate attributeName="opacity" values="0;0;1;.45;0;0" keyTimes="0;.025;0.05;.07;.13;1" dur="12.5s" begin="-9.4s" repeatCount="indefinite"/><defs><path id="s418" d="M474 157h0m2 8h0m2-10h0m2-5h0m0 11h0m3-8h0m1-3h0m1 7h0m2-7h0m2-1h0m3-2h0m1 2h0m4-1h0m-26 21h0m-5 3h0m-9 28h0m5-2h0m5-2h0m5-2h0m5-2h0"/></defs><use href="#s418" stroke-width="9.8" stroke-opacity=".16"/><use href="#s418" stroke-width="4.2"/></g><g opacity="0" stroke="#ff5a1f" stroke-linecap="round"><animate attributeName="opacity" values="0;0;1;.45;0;0" keyTimes="0;.025;0.05;.07;.13;1" dur="12.5s" begin="-9.8s" repeatCount="indefinite"/><defs><path id="s419" d="M456 164h0m5-1h0m3-12h0m1 10h0m3-10h0m1 8h0m3-8h0m4-1h0m-14 25h0m-5 2h0m-5 2h0m-4 2h0m-10 23h0m5-1h0m5-1h0m5-1h0"/></defs><use href="#s419" stroke-width="9.3" stroke-opacity=".16"/><use href="#s419" stroke-width="4"/></g><g opacity="0" stroke="#ff5a1f" stroke-linecap="round"><animate attributeName="opacity" values="0;0;1;.45;0;0" keyTimes="0;.025;0.05;.07;.13;1" dur="12.5s" begin="-10.2s" repeatCount="indefinite"/><defs><path id="s420" d="M444 167h0m4-15h0m0 14h0m4-14h0m0 13h0m4-13h0m4 0h0m-17 30h0m-3-14h0m-1 16h0m-4 1h0m-5 1h0m-10 21h0m5 0h0m4-1h0m5-1h0"/></defs><use href="#s420" stroke-width="9.4" stroke-opacity=".16"/><use href="#s420" stroke-width="4"/></g><g opacity="0" stroke="#ff5a1f" stroke-linecap="round"><animate attributeName="opacity" values="0;0;1;.45;0;0" keyTimes="0;.025;0.05;.07;.13;1" dur="12.5s" begin="-10.6s" repeatCount="indefinite"/><defs><path id="s421" d="M428 153h0m4 0h0m4 0h0m4 0h0m4 0h0m-9 16h0m-4 1h0m-4 0h0m-1 17h0m-3-16h0m-1 17h0m-3-16h0m-2 17h0m-4 1h0m-4 1h0m-11 19h0m4 0h0m4-1h0m5 0h0m4-1h0"/></defs><use href="#s421" stroke-width="8.5" stroke-opacity=".16"/><use href="#s421" stroke-width="3.7"/></g><g opacity="0" stroke="#ff5a1f" stroke-linecap="round"><animate attributeName="opacity" values="0;0;1;.45;0;0" keyTimes="0;.025;0.05;.07;.13;1" dur="12.5s" begin="-11s" repeatCount="indefinite"/><defs><path id="s422" d="M413 154h0m4 0h0m4 0h0m4-1h0m-10 20h0m-4 0h0m-4 1h0m-4 1h0m-23 37h0m4 0h0m5-1h0m3-17h0m1 17h0m3-17h0m5-1h0m4-1h0"/></defs><use href="#s422" stroke-width="8.9" stroke-opacity=".16"/><use href="#s422" stroke-width="3.8"/></g><g opacity="0" stroke="#ff5a1f" stroke-linecap="round"><animate attributeName="opacity" values="0;0;1;.45;0;0" keyTimes="0;.025;0.05;.07;.13;1" dur="12.5s" begin="-11.4s" repeatCount="indefinite"/><defs><path id="s423" d="M394 154h0m4 0h0m4 0h0m3 0h0m4 0h0m-10 21h0m-4 1h0m-4 0h0m-3 0h0m-4 0h0m-25 37h0m4 0h0m4 0h0m4 0h0m1-17h0m4 0h0m0 16h0m4-16h0m4-1h0m4 0h0"/></defs><use href="#s423" stroke-width="8.7" stroke-opacity=".16"/><use href="#s423" stroke-width="3.7"/></g><g opacity="0" stroke="#ff5a1f" stroke-linecap="round"><animate attributeName="opacity" values="0;0;1;.45;0;0" keyTimes="0;.025;0.05;.07;.13;1" dur="12.5s" begin="-11.8s" repeatCount="indefinite"/><defs><path id="s424" d="M379 153h0m4 0h0m4 0h0m3 0h0m-10 23h0m-4 0h0m-4 0h0m-4 0h0m-26 36h0m4 0h0m4 1h0m4 0h0m2-17h0m4 0h0m4 0h0m4 0h0"/></defs><use href="#s424" stroke-width="9.2" stroke-opacity=".16"/><use href="#s424" stroke-width="3.9"/></g><g opacity="0" stroke="#ff5a1f" stroke-linecap="round"><animate attributeName="opacity" values="0;0;1;.45;0;0" keyTimes="0;.025;0.05;.07;.13;1" dur="12.5s" begin="-12.1s" repeatCount="indefinite"/><defs><path id="s425" d="M360 150h0m4 1h0m4 0h0m4 1h0m3 0h0m-11 24h0m-4-1h0m-3 0h0m-4-1h0m-4-1h0m-29 36h0m5 1h0m4 0h0m4 1h0m3-18h0m1 19h0m3-18h0m4 1h0m4 0h0m4 1h0"/></defs><use href="#s425" stroke-width="8.7" stroke-opacity=".16"/><use href="#s425" stroke-width="3.7"/></g><g opacity="0" stroke="#ff5a1f" stroke-linecap="round"><animate attributeName="opacity" values="0;0;1;.45;0;0" keyTimes="0;.025;0.05;.07;.13;1" dur="12.5s" begin="0s" repeatCount="indefinite"/><defs><path id="s426" d="M346 147h0m3 1h0m4 1h0m4 1h0m-12 22h0m-4-1h0m-4-1h0m-3-1h0m-6 22h0m-4-1h0m-4-2h0m-16 16h0m4 2h0m4 1h0m4 1h0m16-16h0"/></defs><use href="#s426" stroke-width="8.7" stroke-opacity=".16"/><use href="#s426" stroke-width="3.7"/></g><g opacity="0" stroke="#ff5a1f" stroke-linecap="round"><animate attributeName="opacity" values="0;0;1;.45;0;0" keyTimes="0;.025;0.05;.07;.13;1" dur="12.5s" begin="-0.4s" repeatCount="indefinite"/><defs><path id="s427" d="M327 143h0m-13 19h0m4 2h0m4 1h0m4 2h0m5-23h0m4 1h0m3 1h0m4 1h0m-12 21h0m-14 19h0m-4-2h0m-5-1h0m-4-2h0m-4-2h0m-17 17h0m4 2h0m5 1h0m4 2h0m4 1h0"/></defs><use href="#s427" stroke-width="9.3" stroke-opacity=".16"/><use href="#s427" stroke-width="4"/></g><g opacity="0" stroke="#ff5a1f" stroke-linecap="round"><animate attributeName="opacity" values="0;0;1;.45;0;0" keyTimes="0;.025;0.05;.07;.13;1" dur="7.9s" begin="-3s" repeatCount="indefinite"/><defs><path id="s428" d="M607 178h0m-5-1h0m-4-2h0m-4-1h0m-2 39h0m1-21h0m4 3h0m5 2h0m4 2h0m0 22h0m-5-3h0m-5-2h0m-1 23h0m-5-2h0m10 4h0m5 2h0"/></defs><use href="#s428" stroke-width="10.2" stroke-opacity=".16"/><use href="#s428" stroke-width="4.4"/></g><g opacity="0" stroke="#ff5a1f" stroke-linecap="round"><animate attributeName="opacity" values="0;0;1;.45;0;0" keyTimes="0;.025;0.05;.07;.13;1" dur="7.9s" begin="-3.2s" repeatCount="indefinite"/><defs><path id="s429" d="M589 172h0m-1 18h0m-3-19h0m-1 17h0m-3-19h0m-1 16h0m-3-17h0m-2 14h0m-2 20h0m5 3h0m4 3h0m5 3h0m-2 24h0m-5-2h0m-5-2h0m-5-2h0"/></defs><use href="#s429" stroke-width="9.5" stroke-opacity=".16"/><use href="#s429" stroke-width="4.1"/></g><g opacity="0" stroke="#ff5a1f" stroke-linecap="round"><animate attributeName="opacity" values="0;0;1;.45;0;0" keyTimes="0;.025;0.05;.07;.13;1" dur="7.9s" begin="-3.5s" repeatCount="indefinite"/><defs><path id="s430" d="M554 163h0m2-4h0m4 2h0m4 2h0m4 1h0m4 2h0m-1 13h0m-4-3h0m-5-4h0m-2 18h0m-2-22h0m-3 17h0m-4-5h0m-5 35h0m18-20h0m5 3h0m-4 28h0m-5-2h0m-4-3h0m-5-3h0"/></defs><use href="#s430" stroke-width="9.5" stroke-opacity=".16"/><use href="#s430" stroke-width="4.1"/></g><g opacity="0" stroke="#ff5a1f" stroke-linecap="round"><animate attributeName="opacity" values="0;0;1;.45;0;0" keyTimes="0;.025;0.05;.07;.13;1" dur="7.9s" begin="-3.7s" repeatCount="indefinite"/><defs><path id="s431" d="M533 158h0m4-13h0m1 18h0m1-12h0m2-2h0m2 4h0m3 1h0m1 1h0m3 4h0m1-2h0m-4 17h0m-5-5h0m-16 33h0m5 3h0m5 3h0m5 4h0"/></defs><use href="#s431" stroke-width="11.3" stroke-opacity=".16"/><use href="#s431" stroke-width="4.9"/></g><g opacity="0" stroke="#ff5a1f" stroke-linecap="round"><animate attributeName="opacity" values="0;0;1;.45;0;0" keyTimes="0;.025;0.05;.07;.13;1" dur="7.9s" begin="-3.9s" repeatCount="indefinite"/><defs><path id="s432" d="M533 141h0m-5-3h0m-4-2h0m-5-1h0m-5 0h0m-5 11h0m5-1h0m4 1h0m1 1h0m3-1h0m2 3h0m2-2h0m3 6h0m1-5h0m5 1h0m-34 45h0m5 1h0m5 1h0m5 1h0m5 3h0"/></defs><use href="#s432" stroke-width="9.8" stroke-opacity=".16"/><use href="#s432" stroke-width="4.2"/></g><g opacity="0" stroke="#ff5a1f" stroke-linecap="round"><animate attributeName="opacity" values="0;0;1;.45;0;0" keyTimes="0;.025;0.05;.07;.13;1" dur="7.9s" begin="-4.2s" repeatCount="indefinite"/><defs><path id="s433" d="M510 136h0m-5 2h0m-5 3h0m-11 16h0m5-4h0m1-9h0m4 6h0m1-3h0m4 0h0m1 0h0m4-1h0m4 0h0m-32 52h0m5-2h0m5-1h0m5 0h0"/></defs><use href="#s433" stroke-width="10.6" stroke-opacity=".16"/><use href="#s433" stroke-width="4.5"/></g><g opacity="0" stroke="#ff5a1f" stroke-linecap="round"><animate attributeName="opacity" values="0;0;1;.45;0;0" keyTimes="0;.025;0.05;.07;.13;1" dur="7.9s" begin="-4.4s" repeatCount="indefinite"/><defs><path id="s434" d="M473 159h0m4-2h0m2-6h0m0 14h0m3-11h0m1-3h0m1 10h0m2-11h0m2 0h0m3-3h0m1 2h0m4-1h0m-22 21h0m-5 4h0m-4 3h0m-9 29h0m5-1h0m5-1h0m5-2h0m5-2h0"/></defs><use href="#s434" stroke-width="10.8" stroke-opacity=".16"/><use href="#s434" stroke-width="4.6"/></g><g opacity="0" stroke="#ff5a1f" stroke-linecap="round"><animate attributeName="opacity" values="0;0;1;.45;0;0" keyTimes="0;.025;0.05;.07;.13;1" dur="7.9s" begin="-4.7s" repeatCount="indefinite"/><defs><path id="s435" d="M455 166h0m4-1h0m4-12h0m1 10h0m3-10h0m1 8h0m3-9h0m4 0h0m-15 26h0m-5 3h0m-4 2h0m-5 1h0m-9 25h0m5-1h0m4-1h0m5-1h0"/></defs><use href="#s435" stroke-width="9.4" stroke-opacity=".16"/><use href="#s435" stroke-width="4"/></g><g opacity="0" stroke="#ff5a1f" stroke-linecap="round"><animate attributeName="opacity" values="0;0;1;.45;0;0" keyTimes="0;.025;0.05;.07;.13;1" dur="7.9s" begin="-4.9s" repeatCount="indefinite"/><defs><path id="s436" d="M447 155h0m4-1h0m0 13h0m4-13h0m4 0h0m-12 15h0m-5 1h0m0 16h0m-4-15h0m-1 16h0m-4 1h0m-4 1h0m-11 22h0m5 0h0m4-1h0m5-1h0"/></defs><use href="#s436" stroke-width="10.5" stroke-opacity=".16"/><use href="#s436" stroke-width="4.5"/></g><g opacity="0" stroke="#ff5a1f" stroke-linecap="round"><animate attributeName="opacity" values="0;0;1;.45;0;0" keyTimes="0;.025;0.05;.07;.13;1" dur="7.9s" begin="-5.2s" repeatCount="indefinite"/><defs><path id="s437" d="M427 156h0m4 0h0m4 0h0m4-1h0m4 0h0m-9 17h0m-4 1h0m-4 0h0m-2 17h0m-2-16h0m-2 17h0m-2-16h0m-22 39h0m4-1h0m5 0h0m2-19h0m2 18h0m2-19h0m3 19h0m2-20h0"/></defs><use href="#s437" stroke-width="9.3" stroke-opacity=".16"/><use href="#s437" stroke-width="4"/></g><g opacity="0" stroke="#ff5a1f" stroke-linecap="round"><animate attributeName="opacity" values="0;0;1;.45;0;0" keyTimes="0;.025;0.05;.07;.13;1" dur="7.9s" begin="-5.4s" repeatCount="indefinite"/><defs><path id="s438" d="M411 157h0m4 0h0m4 0h0m4 0h0m-10 19h0m-4 1h0m-4 0h0m-4 1h0m-23 37h0m4 0h0m5-1h0m3-17h0m1 17h0m4-17h0m4-1h0m4-1h0"/></defs><use href="#s438" stroke-width="9.5" stroke-opacity=".16"/><use href="#s438" stroke-width="4.1"/></g><g opacity="0" stroke="#ff5a1f" stroke-linecap="round"><animate attributeName="opacity" values="0;0;1;.45;0;0" keyTimes="0;.025;0.05;.07;.13;1" dur="7.9s" begin="-5.7s" repeatCount="indefinite"/><defs><path id="s439" d="M392 158h0m4 0h0m4 0h0m4 0h0m4-1h0m-10 22h0m-4 0h0m-4 0h0m-4 1h0m-4 0h0m-26 35h0m9 0h0m4 0h0m1-16h0m3 16h0m1-16h0m4 0h0m4-1h0m4 0h0m-26 18h0"/></defs><use href="#s439" stroke-width="8.5" stroke-opacity=".16"/><use href="#s439" stroke-width="3.6"/></g><g opacity="0" stroke="#ff5a1f" stroke-linecap="round"><animate attributeName="opacity" values="0;0;1;.45;0;0" keyTimes="0;.025;0.05;.07;.13;1" dur="7.9s" begin="-5.9s" repeatCount="indefinite"/><defs><path id="s440" d="M377 157h0m4 0h0m4 0h0m4 0h0m-11 23h0m-4 0h0m-4 0h0m-4 0h0m-27 34h0m4 1h0m5 0h0m4 0h0m2-16h0m4 0h0m4 0h0m4 0h0"/></defs><use href="#s440" stroke-width="9.9" stroke-opacity=".16"/><use href="#s440" stroke-width="4.3"/></g><g opacity="0" stroke="#ff5a1f" stroke-linecap="round"><animate attributeName="opacity" values="0;0;1;.45;0;0" keyTimes="0;.025;0.05;.07;.13;1" dur="7.9s" begin="-6.2s" repeatCount="indefinite"/><defs><path id="s441" d="M359 154h0m3 1h0m4 0h0m4 1h0m4 0h0m-12 23h0m-4 0h0m-3-1h0m-4 0h0m-4-1h0m-29 34h0m4 1h0m4 1h0m4 0h0m3-17h0m2 18h0m2-17h0m5 1h0m4 0h0m4 1h0"/></defs><use href="#s441" stroke-width="9.4" stroke-opacity=".16"/><use href="#s441" stroke-width="4"/></g><g opacity="0" stroke="#ff5a1f" stroke-linecap="round"><animate attributeName="opacity" values="0;0;1;.45;0;0" keyTimes="0;.025;0.05;.07;.13;1" dur="7.9s" begin="-6.4s" repeatCount="indefinite"/><defs><path id="s442" d="M344 151h0m4 1h0m3 1h0m4 1h0m-12 22h0m-4-1h0m-4-1h0m-4-1h0m-14 18h0m-16 16h0m4 1h0m4 1h0m4 1h0m8-17h0m4 1h0m4 1h0"/></defs><use href="#s442" stroke-width="9.3" stroke-opacity=".16"/><use href="#s442" stroke-width="4"/></g><g opacity="0" stroke="#ff5a1f" stroke-linecap="round"><animate attributeName="opacity" values="0;0;1;.45;0;0" keyTimes="0;.025;0.05;.07;.13;1" dur="7.9s" begin="-6.7s" repeatCount="indefinite"/><defs><path id="s443" d="M312 165h0m4 2h0m9-21h0m4 1h0m4 1h0m3 1h0m4 1h0m-13 21h0m-3-1h0m-4-2h0m-7 22h0m-4-2h0m-4-1h0m-4-2h0m-4-2h0m-18 17h0m4 1h0m5 2h0m4 1h0m4 2h0"/></defs><use href="#s443" stroke-width="8" stroke-opacity=".16"/><use href="#s443" stroke-width="3.4"/></g><g opacity="0" stroke="#ff5a1f" stroke-linecap="round"><animate attributeName="opacity" values="0;0;1;.45;0;0" keyTimes="0;.025;0.05;.07;.13;1" dur="7.6s" begin="-3.8s" repeatCount="indefinite"/><defs><path id="s444" d="M607 181h0m-5-1h0m-4-2h0m-4-1h0m-1 19h0m4 2h0m4 2h0m5 2h0m0 22h0m-5-2h0m-5-2h0m-5-3h0m-1 25h0m5 2h0m5 2h0m5 1h0"/></defs><use href="#s444" stroke-width="9.8" stroke-opacity=".16"/><use href="#s444" stroke-width="4.2"/></g><g opacity="0" stroke="#ff5a1f" stroke-linecap="round"><animate attributeName="opacity" values="0;0;1;.45;0;0" keyTimes="0;.025;0.05;.07;.13;1" dur="7.6s" begin="-4s" repeatCount="indefinite"/><defs><path id="s445" d="M589 175h0m-4-2h0m-1 18h0m-3-19h0m-2 16h0m-3-18h0m-1 15h0m-2 21h0m4 3h0m5 3h0m5 3h0m1-22h0m-8 45h0m-5-2h0m-5-2h0m15 6h0"/></defs><use href="#s445" stroke-width="9.9" stroke-opacity=".16"/><use href="#s445" stroke-width="4.2"/></g><g opacity="0" stroke="#ff5a1f" stroke-linecap="round"><animate attributeName="opacity" values="0;0;1;.45;0;0" keyTimes="0;.025;0.05;.07;.13;1" dur="7.6s" begin="-4.3s" repeatCount="indefinite"/><defs><path id="s446" d="M554 165h0m1-5h0m5 2h0m4 2h0m4 2h0m4 2h0m-1 14h0m-5-4h0m-4-4h0m-4-4h0m-3 20h0m-5-5h0m9 10h0m5 4h0m4 4h0m-3 28h0m-5-2h0m-5-2h0m-5-3h0m-5-3h0"/></defs><use href="#s446" stroke-width="9.7" stroke-opacity=".16"/><use href="#s446" stroke-width="4.2"/></g><g opacity="0" stroke="#ff5a1f" stroke-linecap="round"><animate attributeName="opacity" values="0;0;1;.45;0;0" keyTimes="0;.025;0.05;.07;.13;1" dur="7.6s" begin="-4.5s" repeatCount="indefinite"/><defs><path id="s447" d="M532 164h0m5-19h0m2 5h0m2-1h0m2 3h0m2 3h0m2 0h0m3 5h0m1-3h0m-5 23h0m-5-6h0m-4-5h0m-12 41h0m5 3h0m10 6h0m-5-3h0"/></defs><use href="#s447" stroke-width="9.7" stroke-opacity=".16"/><use href="#s447" stroke-width="4.2"/></g><g opacity="0" stroke="#ff5a1f" stroke-linecap="round"><animate attributeName="opacity" values="0;0;1;.45;0;0" keyTimes="0;.025;0.05;.07;.13;1" dur="7.6s" begin="-4.7s" repeatCount="indefinite"/><defs><path id="s448" d="M532 140h0m-4-3h0m-5-2h0m-4-2h0m-5 1h0m-6 18h0m5 0h0m4-8h0m1 9h0m3-8h0m2 11h0m3-11h0m2 14h0m2-12h0m4 1h0m-34 55h0m5 1h0m5 1h0m5 1h0m5 2h0"/></defs><use href="#s448" stroke-width="9.6" stroke-opacity=".16"/><use href="#s448" stroke-width="4.1"/></g><g opacity="0" stroke="#ff5a1f" stroke-linecap="round"><animate attributeName="opacity" values="0;0;1;.45;0;0" keyTimes="0;.025;0.05;.07;.13;1" dur="7.6s" begin="-5s" repeatCount="indefinite"/><defs><path id="s449" d="M509 135h0m-5 2h0m-5 3h0m-11 23h0m5-4h0m2-15h0m3 12h0m2-9h0m3 6h0m1-7h0m4-1h0m5 0h0m-34 60h0m5-1h0m5 0h0m5-1h0"/></defs><use href="#s449" stroke-width="9.7" stroke-opacity=".16"/><use href="#s449" stroke-width="4.1"/></g><g opacity="0" stroke="#ff5a1f" stroke-linecap="round"><animate attributeName="opacity" values="0;0;1;.45;0;0" keyTimes="0;.025;0.05;.07;.13;1" dur="7.6s" begin="-5.2s" repeatCount="indefinite"/><defs><path id="s450" d="M471 161h0m5-3h0m2-6h0m2 3h0m2-4h0m1 15h0m2-15h0m2-1h0m3-2h0m1 1h0m4-1h0m-17 22h0m-5 4h0m-5 3h0m-5 3h0m-9 31h0m5-1h0m5-1h0m5-1h0m5-1h0"/></defs><use href="#s450" stroke-width="9.7" stroke-opacity=".16"/><use href="#s450" stroke-width="4.2"/></g><g opacity="0" stroke="#ff5a1f" stroke-linecap="round"><animate attributeName="opacity" values="0;0;1;.45;0;0" keyTimes="0;.025;0.05;.07;.13;1" dur="7.6s" begin="-5.4s" repeatCount="indefinite"/><defs><path id="s451" d="M458 167h0m4-12h0m0 10h0m4-10h0m1 8h0m3-9h0m4-1h0m-15 29h0m-5-13h0m0 16h0m-5 1h0m-4 2h0m-10 25h0m5 0h0m5-1h0m4 0h0"/></defs><use href="#s451" stroke-width="9.8" stroke-opacity=".16"/><use href="#s451" stroke-width="4.2"/></g><g opacity="0" stroke="#ff5a1f" stroke-linecap="round"><animate attributeName="opacity" values="0;0;1;.45;0;0" keyTimes="0;.025;0.05;.07;.13;1" dur="7.6s" begin="-5.7s" repeatCount="indefinite"/><defs><path id="s452" d="M445 157h0m4 0h0m4-1h0m4 0h0m-8 14h0m-4 1h0m-4 1h0m-1 17h0m-3-15h0m-1 17h0m-20 24h0m5 0h0m5-1h0m1-21h0m3 21h0m1-22h0"/></defs><use href="#s452" stroke-width="9.6" stroke-opacity=".16"/><use href="#s452" stroke-width="4.1"/></g><g opacity="0" stroke="#ff5a1f" stroke-linecap="round"><animate attributeName="opacity" values="0;0;1;.45;0;0" keyTimes="0;.025;0.05;.07;.13;1" dur="7.6s" begin="-5.9s" repeatCount="indefinite"/><defs><path id="s453" d="M425 159h0m4 0h0m4 0h0m4-1h0m4 0h0m-9 17h0m-4 1h0m-4 1h0m-4 0h0m-4 1h0m-11 19h0m5 0h0m4-1h0m4-1h0m5-1h0m-11 22h0m-5 0h0m-4 0h0m-5 1h0m-5 0h0"/></defs><use href="#s453" stroke-width="8.8" stroke-opacity=".16"/><use href="#s453" stroke-width="3.8"/></g><g opacity="0" stroke="#ff5a1f" stroke-linecap="round"><animate attributeName="opacity" values="0;0;1;.45;0;0" keyTimes="0;.025;0.05;.07;.13;1" dur="7.6s" begin="-6.2s" repeatCount="indefinite"/><defs><path id="s454" d="M410 161h0m4 0h0m4-1h0m3 0h0m-9 19h0m-4 1h0m-4 1h0m-4 0h0m-12 19h0m5 0h0m4-1h0m4-1h0m-12 19h0m-5 0h0m-4 1h0m-4 0h0"/></defs><use href="#s454" stroke-width="8.6" stroke-opacity=".16"/><use href="#s454" stroke-width="3.7"/></g><g opacity="0" stroke="#ff5a1f" stroke-linecap="round"><animate attributeName="opacity" values="0;0;1;.45;0;0" keyTimes="0;.025;0.05;.07;.13;1" dur="7.6s" begin="-6.4s" repeatCount="indefinite"/><defs><path id="s455" d="M391 161h0m3 0h0m4 0h0m4 0h0m4 0h0m-10 21h0m-4 0h0m-4 1h0m-4 0h0m-4 0h0m-12 19h0m4 0h0m4 0h0m4-1h0m4 0h0m-13 17h0m-4 0h0m-5 0h0m-4 0h0m-4 0h0"/></defs><use href="#s455" stroke-width="9.5" stroke-opacity=".16"/><use href="#s455" stroke-width="4.1"/></g><g opacity="0" stroke="#ff5a1f" stroke-linecap="round"><animate attributeName="opacity" values="0;0;1;.45;0;0" keyTimes="0;.025;0.05;.07;.13;1" dur="7.6s" begin="-6.6s" repeatCount="indefinite"/><defs><path id="s456" d="M376 161h0m3 0h0m4 0h0m4 0h0m-11 23h0m-4 0h0m-4-1h0m-4 0h0m-13 19h0m4 0h0m5 0h0m4 0h0m-15 16h0m-4-1h0m-4 0h0m-5 0h0"/></defs><use href="#s456" stroke-width="9.5" stroke-opacity=".16"/><use href="#s456" stroke-width="4.1"/></g><g opacity="0" stroke="#ff5a1f" stroke-linecap="round"><animate attributeName="opacity" values="0;0;1;.45;0;0" keyTimes="0;.025;0.05;.07;.13;1" dur="7.6s" begin="-6.9s" repeatCount="indefinite"/><defs><path id="s457" d="M357 158h0m4 1h0m3 0h0m4 1h0m4 0h0m-12 23h0m-4-1h0m-3 0h0m-4-1h0m-4-1h0m-30 33h0m4 1h0m4 1h0m8-16h0m4 1h0m4 0h0m4 1h0m4 1h0m-15 14h0m-4 0h0"/></defs><use href="#s457" stroke-width="8.4" stroke-opacity=".16"/><use href="#s457" stroke-width="3.6"/></g><g opacity="0" stroke="#ff5a1f" stroke-linecap="round"><animate attributeName="opacity" values="0;0;1;.45;0;0" keyTimes="0;.025;0.05;.07;.13;1" dur="7.6s" begin="-7.1s" repeatCount="indefinite"/><defs><path id="s458" d="M342 155h0m4 1h0m3 1h0m4 0h0m-12 22h0m-4-1h0m-4-1h0m-4-1h0m-31 33h0m4 1h0m4 1h0m4 1h0m5-18h0m4 1h0m4 2h0m4 1h0"/></defs><use href="#s458" stroke-width="9.1" stroke-opacity=".16"/><use href="#s458" stroke-width="3.9"/></g><g opacity="0" stroke="#ff5a1f" stroke-linecap="round"><animate attributeName="opacity" values="0;0;1;.45;0;0" keyTimes="0;.025;0.05;.07;.13;1" dur="7.6s" begin="-7.4s" repeatCount="indefinite"/><defs><path id="s459" d="M323 149h0m4 2h0m4 1h0m3 1h0m4 1h0m-13 21h0m-4-2h0m-4-1h0m-4-2h0m-4-2h0m-3 23h0m-4-1h0m-4-2h0m-4-2h0m-18 17h0m4 1h0m5 1h0m4 2h0m4 1h0m17-15h0"/></defs><use href="#s459" stroke-width="8.8" stroke-opacity=".16"/><use href="#s459" stroke-width="3.8"/></g><g opacity="0" stroke="#ff5a1f" stroke-linecap="round"><animate attributeName="opacity" values="0;0;1;.45;0;0" keyTimes="0;.025;0.05;.07;.13;1" dur="9.6s" begin="-3.3s" repeatCount="indefinite"/><defs><path id="s460" d="M606 185h0m-4-2h0m-4-2h0m-5-1h0m-1 19h0m5 3h0m4 2h0m5 2h0m-1 22h0m-4-2h0m-5-2h0m-5-3h0m-1 25h0m5 2h0m5 2h0m5 1h0"/></defs><use href="#s460" stroke-width="10.8" stroke-opacity=".16"/><use href="#s460" stroke-width="4.6"/></g><g opacity="0" stroke="#ff5a1f" stroke-linecap="round"><animate attributeName="opacity" values="0;0;1;.45;0;0" keyTimes="0;.025;0.05;.07;.13;1" dur="9.6s" begin="-3.6s" repeatCount="indefinite"/><defs><path id="s461" d="M589 178h0m-4-2h0m-4-2h0m-2 17h0m-3-19h0m-1 16h0m-3 22h0m5 3h0m7-19h0m4 3h0m-2 22h0m-4-3h0m-13 23h0m5 2h0m5 2h0m6 1h0"/></defs><use href="#s461" stroke-width="10.1" stroke-opacity=".16"/><use href="#s461" stroke-width="4.3"/></g><g opacity="0" stroke="#ff5a1f" stroke-linecap="round"><animate attributeName="opacity" values="0;0;1;.45;0;0" keyTimes="0;.025;0.05;.07;.13;1" dur="9.6s" begin="-3.9s" repeatCount="indefinite"/><defs><path id="s462" d="M553 167h0m2-7h0m4 3h0m5 2h0m8 5h0m-2 15h0m-2-17h0m-2 13h0m-4-4h0m-4-5h0m-9 18h0m5 5h0m5 4h0m4 4h0m5 4h0m-4 30h0m-5-2h0m-5-3h0m-5-2h0m-5-2h0"/></defs><use href="#s462" stroke-width="10" stroke-opacity=".16"/><use href="#s462" stroke-width="4.3"/></g><g opacity="0" stroke="#ff5a1f" stroke-linecap="round"><animate attributeName="opacity" values="0;0;1;.45;0;0" keyTimes="0;.025;0.05;.07;.13;1" dur="9.6s" begin="-4.2s" repeatCount="indefinite"/><defs><path id="s463" d="M536 145h0m2 4h0m3 1h0m2 2h0m2 4h0m2-1h0m2 6h0m2-4h0m-6 28h0m-5-5h0m-4-5h0m-5-5h0m8 55h0m-5-2h0m-5-2h0m-5-3h0"/></defs><use href="#s463" stroke-width="9.3" stroke-opacity=".16"/><use href="#s463" stroke-width="4"/></g><g opacity="0" stroke="#ff5a1f" stroke-linecap="round"><animate attributeName="opacity" values="0;0;1;.45;0;0" keyTimes="0;.025;0.05;.07;.13;1" dur="9.6s" begin="-4.5s" repeatCount="indefinite"/><defs><path id="s464" d="M532 140h0m-5-3h0m-4-3h0m-2 9h0m-3-10h0m-1 10h0m-4-10h0m-6 26h0m5 0h0m5 2h0m5 2h0m3-19h0m1 22h0m4-21h0m4 2h0m-36 65h0m5 0h0m5 1h0m5 2h0m6 1h0"/></defs><use href="#s464" stroke-width="10.2" stroke-opacity=".16"/><use href="#s464" stroke-width="4.4"/></g><g opacity="0" stroke="#ff5a1f" stroke-linecap="round"><animate attributeName="opacity" values="0;0;1;.45;0;0" keyTimes="0;.025;0.05;.07;.13;1" dur="9.6s" begin="-4.8s" repeatCount="indefinite"/><defs><path id="s465" d="M512 143h0m-4-8h0m-5 3h0m-5 3h0m-7 24h0m3-20h0m2 18h0m3-17h0m3 15h0m1-16h0m5-1h0m-22 25h0m-8 44h0m5-1h0m5 0h0m5 0h0"/></defs><use href="#s465" stroke-width="9.7" stroke-opacity=".16"/><use href="#s465" stroke-width="4.1"/></g><g opacity="0" stroke="#ff5a1f" stroke-linecap="round"><animate attributeName="opacity" values="0;0;1;.45;0;0" keyTimes="0;.025;0.05;.07;.13;1" dur="9.6s" begin="-5.1s" repeatCount="indefinite"/><defs><path id="s466" d="M470 163h0m5-3h0m2-7h0m2 4h0m2-5h0m3 1h0m2-2h0m3-2h0m1 0h0m4-1h0m-13 24h0m-5 4h0m-5 3h0m-4 3h0m-5 3h0m1 30h0m5-1h0m5 0h0m-15 2h0m-5 0h0"/></defs><use href="#s466" stroke-width="10.2" stroke-opacity=".16"/><use href="#s466" stroke-width="4.4"/></g><g opacity="0" stroke="#ff5a1f" stroke-linecap="round"><animate attributeName="opacity" values="0;0;1;.45;0;0" keyTimes="0;.025;0.05;.07;.13;1" dur="9.6s" begin="-5.4s" repeatCount="indefinite"/><defs><path id="s467" d="M460 157h0m4-1h0m2 10h0m3-10h0m4-1h0m-12 13h0m-4 2h0m0 17h0m-4 2h0m-1-17h0m-4 18h0m-5 2h0m5 25h0m-5 0h0m-5 1h0m-5 0h0"/></defs><use href="#s467" stroke-width="10" stroke-opacity=".16"/><use href="#s467" stroke-width="4.3"/></g><g opacity="0" stroke="#ff5a1f" stroke-linecap="round"><animate attributeName="opacity" values="0;0;1;.45;0;0" keyTimes="0;.025;0.05;.07;.13;1" dur="9.6s" begin="-5.7s" repeatCount="indefinite"/><defs><path id="s468" d="M444 160h0m4-1h0m4 0h0m4-1h0m-8 15h0m-4 1h0m-5 1h0m-4 2h0m-10 19h0m5-1h0m4-1h0m5-1h0m-10 25h0m-5 1h0m-5 0h0m-5 0h0"/></defs><use href="#s468" stroke-width="10.2" stroke-opacity=".16"/><use href="#s468" stroke-width="4.4"/></g><g opacity="0" stroke="#ff5a1f" stroke-linecap="round"><animate attributeName="opacity" values="0;0;1;.45;0;0" keyTimes="0;.025;0.05;.07;.13;1" dur="9.6s" begin="-6s" repeatCount="indefinite"/><defs><path id="s469" d="M424 163h0m4-1h0m4 0h0m4-1h0m4-1h0m-9 18h0m-4 1h0m-5 1h0m-4 1h0m-4 0h0m-11 20h0m5-1h0m4-1h0m4-1h0m5-1h0m-11 22h0m-5 1h0m-5 0h0m-4 0h0m-5 0h0"/></defs><use href="#s469" stroke-width="9.8" stroke-opacity=".16"/><use href="#s469" stroke-width="4.2"/></g><g opacity="0" stroke="#ff5a1f" stroke-linecap="round"><animate attributeName="opacity" values="0;0;1;.45;0;0" keyTimes="0;.025;0.05;.07;.13;1" dur="9.6s" begin="-6.3s" repeatCount="indefinite"/><defs><path id="s470" d="M408 164h0m4 0h0m4 0h0m4-1h0m-10 19h0m-4 1h0m-4 1h0m-4 1h0m-12 18h0m5 0h0m4-1h0m4-1h0m-12 19h0m-5 1h0m-4 0h0m-5 0h0"/></defs><use href="#s470" stroke-width="10.6" stroke-opacity=".16"/><use href="#s470" stroke-width="4.6"/></g><g opacity="0" stroke="#ff5a1f" stroke-linecap="round"><animate attributeName="opacity" values="0;0;1;.45;0;0" keyTimes="0;.025;0.05;.07;.13;1" dur="9.6s" begin="-6.6s" repeatCount="indefinite"/><defs><path id="s471" d="M389 165h0m4 0h0m4 0h0m3 0h0m4 0h0m-10 20h0m-4 1h0m-4 0h0m-4 1h0m-4 0h0m-12 18h0m4 0h0m4 0h0m4-1h0m4 0h0m-13 17h0m-5 0h0m-4 0h0m-5-1h0m-4 0h0"/></defs><use href="#s471" stroke-width="9.9" stroke-opacity=".16"/><use href="#s471" stroke-width="4.2"/></g><g opacity="0" stroke="#ff5a1f" stroke-linecap="round"><animate attributeName="opacity" values="0;0;1;.45;0;0" keyTimes="0;.025;0.05;.07;.13;1" dur="9.6s" begin="-6.9s" repeatCount="indefinite"/><defs><path id="s472" d="M374 165h0m4 0h0m3 0h0m4 0h0m-11 22h0m-4 0h0m-4 0h0m-4 0h0m-13 18h0m4 0h0m4 0h0m4 0h0m-14 15h0m-5 0h0m-4-1h0m-4 0h0"/></defs><use href="#s472" stroke-width="8.9" stroke-opacity=".16"/><use href="#s472" stroke-width="3.8"/></g><g opacity="0" stroke="#ff5a1f" stroke-linecap="round"><animate attributeName="opacity" values="0;0;1;.45;0;0" keyTimes="0;.025;0.05;.07;.13;1" dur="9.6s" begin="-7.2s" repeatCount="indefinite"/><defs><path id="s473" d="M355 162h0m4 1h0m3 0h0m4 1h0m4 0h0m-12 22h0m-4 0h0m-4-1h0m-3-1h0m-4 0h0m-31 31h0m16-14h0m5 1h0m4 1h0m4 1h0m4 0h0m-16 14h0m-4 0h0m-4-1h0m-5-1h0"/></defs><use href="#s473" stroke-width="9.4" stroke-opacity=".16"/><use href="#s473" stroke-width="4"/></g><g opacity="0" stroke="#ff5a1f" stroke-linecap="round"><animate attributeName="opacity" values="0;0;1;.45;0;0" keyTimes="0;.025;0.05;.07;.13;1" dur="9.6s" begin="-7.5s" repeatCount="indefinite"/><defs><path id="s474" d="M340 159h0m4 1h0m3 0h0m4 1h0m-12 22h0m-4-1h0m-4-2h0m-4-1h0m-33 32h0m5 1h0m4 2h0m4 0h0m5-17h0m4 1h0m4 1h0m4 1h0"/></defs><use href="#s474" stroke-width="10.3" stroke-opacity=".16"/><use href="#s474" stroke-width="4.4"/></g><g opacity="0" stroke="#ff5a1f" stroke-linecap="round"><animate attributeName="opacity" values="0;0;1;.45;0;0" keyTimes="0;.025;0.05;.07;.13;1" dur="9.6s" begin="-7.8s" repeatCount="indefinite"/><defs><path id="s475" d="M321 153h0m4 1h0m3 1h0m4 1h0m4 1h0m-13 21h0m-4-2h0m-4-1h0m-4-2h0m-4-2h0m-12 20h0m-4-2h0m-18 16h0m4 2h0m4 1h0m5 1h0m4 1h0m9-18h0m5 2h0m4 1h0"/></defs><use href="#s475" stroke-width="8.5" stroke-opacity=".16"/><use href="#s475" stroke-width="3.6"/></g><g opacity="0" stroke="#ff5a1f" stroke-linecap="round"><animate attributeName="opacity" values="0;0;1;.45;0;0" keyTimes="0;.025;0.05;.07;.13;1" dur="7.8s" begin="-1.4s" repeatCount="indefinite"/><defs><path id="s476" d="M606 188h0m-4-1h0m-4-2h0m-5-2h0m-1 20h0m5 2h0m4 2h0m5 3h0m-1 22h0m-4-2h0m-5-3h0m-5-2h0m-1 26h0m5 1h0m5 2h0m5 1h0"/></defs><use href="#s476" stroke-width="9.9" stroke-opacity=".16"/><use href="#s476" stroke-width="4.2"/></g><g opacity="0" stroke="#ff5a1f" stroke-linecap="round"><animate attributeName="opacity" values="0;0;1;.45;0;0" keyTimes="0;.025;0.05;.07;.13;1" dur="7.8s" begin="-1.7s" repeatCount="indefinite"/><defs><path id="s477" d="M589 181h0m-4-2h0m-5-2h0m-4-2h0m-2 16h0m-2 24h0m7-21h0m4 3h0m5 3h0m-2 23h0m-5-3h0m-4-2h0m-8 26h0m5 2h0m5 1h0m5 2h0"/></defs><use href="#s477" stroke-width="10.3" stroke-opacity=".16"/><use href="#s477" stroke-width="4.4"/></g><g opacity="0" stroke="#ff5a1f" stroke-linecap="round"><animate attributeName="opacity" values="0;0;1;.45;0;0" keyTimes="0;.025;0.05;.07;.13;1" dur="7.8s" begin="-1.9s" repeatCount="indefinite"/><defs><path id="s478" d="M555 161h0m4 3h0m4 3h0m9 5h0m-2 16h0m-2-18h0m-2 14h0m-5-5h0m-4-5h0m-4-5h0m-4 27h0m4 4h0m5 4h0m4 4h0m5 4h0m-14 26h0m-5-2h0m-5-2h0m15 6h0m5 2h0"/></defs><use href="#s478" stroke-width="9.5" stroke-opacity=".16"/><use href="#s478" stroke-width="4.1"/></g><g opacity="0" stroke="#ff5a1f" stroke-linecap="round"><animate attributeName="opacity" values="0;0;1;.45;0;0" keyTimes="0;.025;0.05;.07;.13;1" dur="7.8s" begin="-2.1s" repeatCount="indefinite"/><defs><path id="s479" d="M536 146h0m2 2h0m2 4h0m2-1h0m2 7h0m2-4h0m3 10h0m2-6h0m-7 33h0m-5-4h0m-4-5h0m-5-4h0m8 54h0m-5-2h0m-5-2h0m-6-2h0"/></defs><use href="#s479" stroke-width="9.3" stroke-opacity=".16"/><use href="#s479" stroke-width="4"/></g><g opacity="0" stroke="#ff5a1f" stroke-linecap="round"><animate attributeName="opacity" values="0;0;1;.45;0;0" keyTimes="0;.025;0.05;.07;.13;1" dur="7.8s" begin="-2.4s" repeatCount="indefinite"/><defs><path id="s480" d="M531 142h0m-2 1h0m-2-5h0m-2 4h0m-3-7h0m-1 6h0m-4-7h0m-1 7h0m-4-7h0m22 11h0m-9 29h0m-5-3h0m-5-2h0m-5-1h0m-5 0h0m12 57h0m-5-2h0m-5-1h0m-5-1h0m-5-1h0"/></defs><use href="#s480" stroke-width="10.8" stroke-opacity=".16"/><use href="#s480" stroke-width="4.6"/></g><g opacity="0" stroke="#ff5a1f" stroke-linecap="round"><animate attributeName="opacity" values="0;0;1;.45;0;0" keyTimes="0;.025;0.05;.07;.13;1" dur="7.8s" begin="-2.6s" repeatCount="indefinite"/><defs><path id="s481" d="M512 141h0m-5 1h0m0-6h0m-5 3h0m-5 3h0m-4 4h0m5-1h0m5-1h0m-3 25h0m-5 1h0m-5 3h0m-5 3h0m7 44h0m-6 0h0m-5 0h0m-5 0h0"/></defs><use href="#s481" stroke-width="11.1" stroke-opacity=".16"/><use href="#s481" stroke-width="4.8"/></g><g opacity="0" stroke="#ff5a1f" stroke-linecap="round"><animate attributeName="opacity" values="0;0;1;.45;0;0" keyTimes="0;.025;0.05;.07;.13;1" dur="7.8s" begin="-2.9s" repeatCount="indefinite"/><defs><path id="s482" d="M469 166h0m4-3h0m3-8h0m2 4h0m2-6h0m3 2h0m2-4h0m3 0h0m1-2h0m5-2h0m-14 32h0m-5 3h0m-5 2h0m-5 3h0m-5 2h0m11 32h0m-5 0h0m-5 1h0m-5 0h0m-5 0h0"/></defs><use href="#s482" stroke-width="10" stroke-opacity=".16"/><use href="#s482" stroke-width="4.3"/></g><g opacity="0" stroke="#ff5a1f" stroke-linecap="round"><animate attributeName="opacity" values="0;0;1;.45;0;0" keyTimes="0;.025;0.05;.07;.13;1" dur="7.8s" begin="-3.1s" repeatCount="indefinite"/><defs><path id="s483" d="M459 159h0m4-1h0m4-1h0m5-1h0m-8 12h0m-4 3h0m-4 20h0m-1-18h0m-4 1h0m-9 22h0m4-1h0m5-2h0m-5 29h0m-5 1h0m-5 0h0m-4 0h0"/></defs><use href="#s483" stroke-width="9.7" stroke-opacity=".16"/><use href="#s483" stroke-width="4.2"/></g><g opacity="0" stroke="#ff5a1f" stroke-linecap="round"><animate attributeName="opacity" values="0;0;1;.45;0;0" keyTimes="0;.025;0.05;.07;.13;1" dur="7.8s" begin="-3.4s" repeatCount="indefinite"/><defs><path id="s484" d="M443 162h0m4 0h0m4-1h0m4-1h0m-9 16h0m-4 1h0m-4 1h0m-4 2h0m-10 20h0m4-1h0m5-1h0m4-1h0m-10 26h0m-5 0h0m-5 0h0m-5 0h0"/></defs><use href="#s484" stroke-width="9.6" stroke-opacity=".16"/><use href="#s484" stroke-width="4.1"/></g><g opacity="0" stroke="#ff5a1f" stroke-linecap="round"><animate attributeName="opacity" values="0;0;1;.45;0;0" keyTimes="0;.025;0.05;.07;.13;1" dur="7.8s" begin="-3.6s" repeatCount="indefinite"/><defs><path id="s485" d="M422 166h0m4-1h0m4-1h0m4 0h0m4-1h0m-9 18h0m-4 1h0m-4 1h0m-4 1h0m-5 1h0m-10 19h0m4-1h0m4-1h0m5 0h0m4-1h0m-11 22h0m-5 0h0m-5 1h0m-4 0h0m-5 0h0"/></defs><use href="#s485" stroke-width="9.6" stroke-opacity=".16"/><use href="#s485" stroke-width="4.1"/></g><g opacity="0" stroke="#ff5a1f" stroke-linecap="round"><animate attributeName="opacity" values="0;0;1;.45;0;0" keyTimes="0;.025;0.05;.07;.13;1" dur="7.8s" begin="-3.8s" repeatCount="indefinite"/><defs><path id="s486" d="M410 167h0m4 0h0m4-1h0m-10 20h0m-1-18h0m-3 18h0m-4 1h0m-4 1h0m-12 18h0m5 0h0m4-1h0m4 0h0m-12 19h0m-5 0h0m-5 0h0m-4 0h0"/></defs><use href="#s486" stroke-width="9.8" stroke-opacity=".16"/><use href="#s486" stroke-width="4.2"/></g><g opacity="0" stroke="#ff5a1f" stroke-linecap="round"><animate attributeName="opacity" values="0;0;1;.45;0;0" keyTimes="0;.025;0.05;.07;.13;1" dur="7.8s" begin="-4.1s" repeatCount="indefinite"/><defs><path id="s487" d="M403 168h0m-4 0h0m-4 1h0m-3 20h0m-1-20h0m-3 20h0m-1-20h0m-3 20h0m-4 1h0m-4 0h0m-13 18h0m4 0h0m5-1h0m4 0h0m4 0h0m-14 16h0m-4 0h0m-5 0h0m-4 0h0m-5 0h0"/></defs><use href="#s487" stroke-width="9.4" stroke-opacity=".16"/><use href="#s487" stroke-width="4"/></g><g opacity="0" stroke="#ff5a1f" stroke-linecap="round"><animate attributeName="opacity" values="0;0;1;.45;0;0" keyTimes="0;.025;0.05;.07;.13;1" dur="7.8s" begin="-4.3s" repeatCount="indefinite"/><defs><path id="s488" d="M383 169h0m-3 0h0m-4 0h0m-4 0h0m0 21h0m-4 0h0m-4 0h0m-4 0h0m-13 17h0m4 1h0m4 0h0m4 0h0m-15 14h0m-4 0h0m-5-1h0m-4 0h0"/></defs><use href="#s488" stroke-width="9.3" stroke-opacity=".16"/><use href="#s488" stroke-width="4"/></g><g opacity="0" stroke="#ff5a1f" stroke-linecap="round"><animate attributeName="opacity" values="0;0;1;.45;0;0" keyTimes="0;.025;0.05;.07;.13;1" dur="7.8s" begin="-4.6s" repeatCount="indefinite"/><defs><path id="s489" d="M353 166h0m4 1h0m4 0h0m7 1h0m-4 0h0m-8 22h0m-4-1h0m-4-1h0m-4 0h0m-4-1h0m-14 17h0m4 1h0m4 1h0m4 0h0m4 1h0m-16 13h0m-4 0h0m-4-1h0m-5-1h0m-4-1h0"/></defs><use href="#s489" stroke-width="9.3" stroke-opacity=".16"/><use href="#s489" stroke-width="4"/></g><g opacity="0" stroke="#ff5a1f" stroke-linecap="round"><animate attributeName="opacity" values="0;0;1;.45;0;0" keyTimes="0;.025;0.05;.07;.13;1" dur="7.8s" begin="-4.8s" repeatCount="indefinite"/><defs><path id="s490" d="M338 162h0m4 1h0m3 1h0m4 1h0m-13 21h0m-4-1h0m-4-1h0m-4-2h0m-33 32h0m5 1h0m13-16h0m4 2h0m5 1h0m4 1h0m-18 14h0m-4-1h0"/></defs><use href="#s490" stroke-width="9.8" stroke-opacity=".16"/><use href="#s490" stroke-width="4.2"/></g><g opacity="0" stroke="#ff5a1f" stroke-linecap="round"><animate attributeName="opacity" values="0;0;1;.45;0;0" keyTimes="0;.025;0.05;.07;.13;1" dur="7.8s" begin="-5.1s" repeatCount="indefinite"/><defs><path id="s491" d="M319 156h0m4 1h0m3 2h0m4 1h0m4 1h0m-14 20h0m-4-2h0m-4-1h0m-4-2h0m-4-2h0m-35 34h0m5 1h0m4 1h0m5 1h0m4 2h0m1-21h0m4 1h0m5 2h0m4 2h0m4 1h0"/></defs><use href="#s491" stroke-width="9.2" stroke-opacity=".16"/><use href="#s491" stroke-width="4"/></g><g opacity="0" stroke="#ff5a1f" stroke-linecap="round"><animate attributeName="opacity" values="0;0;1;.45;0;0" keyTimes="0;.025;0.05;.07;.13;1" dur="9.6s" begin="-5.1s" repeatCount="indefinite"/><defs><path id="s492" d="M602 190h0m-5-2h0m-4-2h0m-1 20h0m5 3h0m4 2h0m5-19h0m0 21h0m-1 23h0m-4-2h0m-5-3h0m-5-2h0"/></defs><use href="#s492" stroke-width="9.7" stroke-opacity=".16"/><use href="#s492" stroke-width="4.1"/></g><g opacity="0" stroke="#ff5a1f" stroke-linecap="round"><animate attributeName="opacity" values="0;0;1;.45;0;0" keyTimes="0;.025;0.05;.07;.13;1" dur="9.6s" begin="-5.4s" repeatCount="indefinite"/><defs><path id="s493" d="M589 184h0m-5-2h0m-4-3h0m-4-2h0m-2 18h0m4 3h0m5 3h0m4 3h0m-1 23h0m-5-3h0m-5-2h0m-5-3h0"/></defs><use href="#s493" stroke-width="9.9" stroke-opacity=".16"/><use href="#s493" stroke-width="4.3"/></g><g opacity="0" stroke="#ff5a1f" stroke-linecap="round"><animate attributeName="opacity" values="0;0;1;.45;0;0" keyTimes="0;.025;0.05;.07;.13;1" dur="9.6s" begin="-5.7s" repeatCount="indefinite"/><defs><path id="s494" d="M555 162h0m4 3h0m13 9h0m-2 17h0m-3-19h0m-2 15h0m-2-18h0m-2 14h0m-4-5h0m-5-6h0m-4 30h0m4 4h0m5 4h0m5 3h0m5 3h0"/></defs><use href="#s494" stroke-width="9.7" stroke-opacity=".16"/><use href="#s494" stroke-width="4.2"/></g><g opacity="0" stroke="#ff5a1f" stroke-linecap="round"><animate attributeName="opacity" values="0;0;1;.45;0;0" keyTimes="0;.025;0.05;.07;.13;1" dur="9.6s" begin="-6s" repeatCount="indefinite"/><defs><path id="s495" d="M535 149h0m3-2h0m1 8h0m3-5h0m2 10h0m2-6h0m2 12h0m2-8h0m-17 32h0m-4-4h0m9 8h0m5 4h0"/></defs><use href="#s495" stroke-width="10.6" stroke-opacity=".16"/><use href="#s495" stroke-width="4.5"/></g><g opacity="0" stroke="#ff5a1f" stroke-linecap="round"><animate attributeName="opacity" values="0;0;1;.45;0;0" keyTimes="0;.025;0.05;.07;.13;1" dur="9.6s" begin="-6.3s" repeatCount="indefinite"/><defs><path id="s496" d="M529 141h0m-3-1h0m-1-1h0m-4-1h0m-1 0h0m-4 0h0m0-1h0m-5 0h0m19 7h0m3 0h0m-9 38h0m-5-2h0m-5-2h0m-5-1h0m-5-1h0"/></defs><use href="#s496" stroke-width="10.3" stroke-opacity=".16"/><use href="#s496" stroke-width="4.4"/></g><g opacity="0" stroke="#ff5a1f" stroke-linecap="round"><animate attributeName="opacity" values="0;0;1;.45;0;0" keyTimes="0;.025;0.05;.07;.13;1" dur="9.6s" begin="-6.6s" repeatCount="indefinite"/><defs><path id="s497" d="M511 139h0m-5 1h0m0-2h0m-4 4h0m-1-1h0m-10 8h0m5-4h0m1 0h0m2 32h0m-5 1h0m-5 2h0m-5 3h0"/></defs><use href="#s497" stroke-width="10.5" stroke-opacity=".16"/><use href="#s497" stroke-width="4.5"/></g><g opacity="0" stroke="#ff5a1f" stroke-linecap="round"><animate attributeName="opacity" values="0;0;1;.45;0;0" keyTimes="0;.025;0.05;.07;.13;1" dur="9.6s" begin="-6.9s" repeatCount="indefinite"/><defs><path id="s498" d="M472 165h0m3-9h0m2 6h0m2-8h0m3 4h0m2-6h0m2 1h0m2-3h0m5-3h0m-14 38h0m-5 3h0m-5 2h0m-2-21h0m-8 25h0m5-1h0"/></defs><use href="#s498" stroke-width="11.6" stroke-opacity=".16"/><use href="#s498" stroke-width="5"/></g><g opacity="0" stroke="#ff5a1f" stroke-linecap="round"><animate attributeName="opacity" values="0;0;1;.45;0;0" keyTimes="0;.025;0.05;.07;.13;1" dur="9.6s" begin="-7.2s" repeatCount="indefinite"/><defs><path id="s499" d="M458 161h0m4-1h0m4-1h0m5-1h0m-8 13h0m-5 3h0m-4 2h0m-5 2h0m-9 22h0m5-1h0m4-1h0m5-2h0"/></defs><use href="#s499" stroke-width="8.5" stroke-opacity=".16"/><use href="#s499" stroke-width="3.7"/></g><g opacity="0" stroke="#ff5a1f" stroke-linecap="round"><animate attributeName="opacity" values="0;0;1;.45;0;0" keyTimes="0;.025;0.05;.07;.13;1" dur="9.6s" begin="-7.5s" repeatCount="indefinite"/><defs><path id="s500" d="M441 165h0m4-1h0m4-1h0m5-1h0m-9 17h0m-4 1h0m-5 2h0m-4 1h0m-10 21h0m4-1h0m5-1h0m4-1h0"/></defs><use href="#s500" stroke-width="9.4" stroke-opacity=".16"/><use href="#s500" stroke-width="4"/></g><g opacity="0" stroke="#ff5a1f" stroke-linecap="round"><animate attributeName="opacity" values="0;0;1;.45;0;0" keyTimes="0;.025;0.05;.07;.13;1" dur="9.6s" begin="-7.8s" repeatCount="indefinite"/><defs><path id="s501" d="M429 167h0m4 0h0m4-1h0m-9 18h0m-3-16h0m-2 17h0m-2-16h0m-2 17h0m-4 1h0m-4 1h0m-11 19h0m4-1h0m4 0h0m5-1h0m4-1h0"/></defs><use href="#s501" stroke-width="8.1" stroke-opacity=".16"/><use href="#s501" stroke-width="3.5"/></g><g opacity="0" stroke="#ff5a1f" stroke-linecap="round"><animate attributeName="opacity" values="0;0;1;.45;0;0" keyTimes="0;.025;0.05;.07;.13;1" dur="9.6s" begin="-8.1s" repeatCount="indefinite"/><defs><path id="s502" d="M417 170h0m-4 0h0m-4 1h0m-2 18h0m-2-18h0m-3 19h0m-4 0h0m-4 1h0m-12 18h0m5 0h0m4-1h0m4 0h0"/></defs><use href="#s502" stroke-width="9.6" stroke-opacity=".16"/><use href="#s502" stroke-width="4.1"/></g><g opacity="0" stroke="#ff5a1f" stroke-linecap="round"><animate attributeName="opacity" values="0;0;1;.45;0;0" keyTimes="0;.025;0.05;.07;.13;1" dur="9.6s" begin="-8.4s" repeatCount="indefinite"/><defs><path id="s503" d="M401 172h0m-4 0h0m-4 0h0m-4 1h0m-4 0h0m-24 37h0m4 0h0m4 0h0m5-17h0m0 17h0m4-17h0m0 17h0m4-17h0m4-1h0m4 0h0"/></defs><use href="#s503" stroke-width="9.9" stroke-opacity=".16"/><use href="#s503" stroke-width="4.2"/></g><g opacity="0" stroke="#ff5a1f" stroke-linecap="round"><animate attributeName="opacity" values="0;0;1;.45;0;0" keyTimes="0;.025;0.05;.07;.13;1" dur="9.6s" begin="-8.7s" repeatCount="indefinite"/><defs><path id="s504" d="M382 173h0m-4 0h0m-4 0h0m-4-1h0m-26 38h0m4 0h0m5 0h0m4 0h0m1-17h0m4 0h0m4 0h0m4 0h0"/></defs><use href="#s504" stroke-width="9.8" stroke-opacity=".16"/><use href="#s504" stroke-width="4.2"/></g><g opacity="0" stroke="#ff5a1f" stroke-linecap="round"><animate attributeName="opacity" values="0;0;1;.45;0;0" keyTimes="0;.025;0.05;.07;.13;1" dur="9.6s" begin="-9s" repeatCount="indefinite"/><defs><path id="s505" d="M366 172h0m-4 0h0m-3-1h0m-4-1h0m-4 0h0m-9 21h0m-4-1h0m-15 16h0m4 1h0m5 1h0m4 1h0m4 0h0m6-17h0m4 0h0m4 1h0"/></defs><use href="#s505" stroke-width="9.1" stroke-opacity=".16"/><use href="#s505" stroke-width="3.9"/></g><g opacity="0" stroke="#ff5a1f" stroke-linecap="round"><animate attributeName="opacity" values="0;0;1;.45;0;0" keyTimes="0;.025;0.05;.07;.13;1" dur="9.6s" begin="-9.3s" repeatCount="indefinite"/><defs><path id="s506" d="M336 166h0m3 1h0m8 2h0m-4-1h0m-9 21h0m-4-1h0m-4-1h0m-4-2h0m-16 17h0m5 1h0m4 1h0m4 1h0"/></defs><use href="#s506" stroke-width="8.6" stroke-opacity=".16"/><use href="#s506" stroke-width="3.7"/></g><g opacity="0" stroke="#ff5a1f" stroke-linecap="round"><animate attributeName="opacity" values="0;0;1;.45;0;0" keyTimes="0;.025;0.05;.07;.13;1" dur="9.6s" begin="0s" repeatCount="indefinite"/><defs><path id="s507" d="M316 159h0m4 1h0m4 2h0m4 1h0m4 2h0m-14 19h0m-4-1h0m-4-2h0m-4-2h0m-4-2h0m-17 17h0m4 2h0m5 2h0m4 1h0m4 2h0"/></defs><use href="#s507" stroke-width="9.6" stroke-opacity=".16"/><use href="#s507" stroke-width="4.1"/></g><path d="M44.3 44L44.3 44Q45.3 44 45.9 44.4Q46.5 44.8 46.9 45.6Q47.3 46.3 47.4 47.2Q47.6 48.1 47.6 49.1L47.6 49.1Q47.6 50.1 47.4 51Q47.3 51.9 46.9 52.7Q46.5 53.4 45.9 53.8Q45.3 54.3 44.3 54.3L44.3 54.3Q43.4 54.3 42.7 53.8Q42.1 53.4 41.8 52.7Q41.4 51.9 41.2 51Q41.1 50.1 41.1 49.1L41.1 49.1Q41.1 48.1 41.2 47.2Q41.4 46.3 41.8 45.6Q42.1 44.8 42.7 44.4Q43.4 44 44.3 44M44.3 45.1L44.3 45.1Q43.2 45.1 42.7 46.2Q42.2 47.3 42.2 49.1L42.2 49.1Q42.2 50 42.3 50.7Q42.5 51.5 42.7 52L42.7 52L45.5 45.5Q45 45.1 44.3 45.1M46.4 49.1L46.4 49.1Q46.4 48.3 46.3 47.6Q46.2 47 46 46.4L46 46.4L43.3 52.9Q43.8 53.2 44.3 53.2L44.3 53.2Q45.1 53.2 45.5 52.7Q46 52.2 46.2 51.3Q46.4 50.3 46.4 49.1M57.9 46.5L57.9 46.5L56.6 46.5Q56.5 45.9 56.1 45.4Q55.8 45 55 45L55 45Q53.9 45 53.3 46.1Q52.7 47.2 52.7 49L52.7 49Q53 48.5 53.7 48.1Q54.3 47.7 55.1 47.7L55.1 47.7Q56.1 47.7 56.7 48.2Q57.4 48.6 57.7 49.3Q58.1 50.1 58.1 50.9L58.1 50.9Q58.1 51.8 57.7 52.5Q57.3 53.3 56.6 53.8Q55.9 54.3 54.9 54.3L54.9 54.3Q53.9 54.3 53.3 53.9Q52.6 53.5 52.2 52.8Q51.8 52.1 51.6 51.2Q51.5 50.3 51.5 49.3L51.5 49.3Q51.5 46.8 52.4 45.4Q53.4 44 55.1 44L55.1 44Q56.2 44 56.9 44.6Q57.7 45.3 57.9 46.5M54.9 48.8L54.9 48.8Q54.3 48.8 53.8 49.1Q53.3 49.4 53.1 49.9Q52.8 50.4 52.8 51L52.8 51Q52.8 51.6 53.1 52.1Q53.3 52.6 53.8 52.9Q54.3 53.2 54.9 53.2L54.9 53.2Q55.8 53.2 56.3 52.6Q56.8 51.9 56.8 51L56.8 51Q56.8 50.1 56.3 49.4Q55.8 48.8 54.9 48.8" fill="#ff5a1f"/><path d="M75.2 54L75.2 54L72 54L72 44.2L75.2 44.2Q76.5 44.2 77.3 44.8Q78.1 45.5 78.5 46.6Q78.9 47.7 78.9 49.1L78.9 49.1Q78.9 50.5 78.5 51.6Q78.1 52.7 77.3 53.4Q76.5 54 75.2 54M75 45.4L73.4 45.4L73.4 52.9L75 52.9Q76.4 52.9 77 51.9Q77.6 50.9 77.6 49.1L77.6 49.1Q77.6 47.4 77 46.4Q76.4 45.4 75 45.4L75 45.4M89.5 54L88.2 54L87.3 51.1L83.9 51.1L83.1 54L81.7 54L84.8 44.2L86.5 44.2L89.5 54M85.6 45.4L84.3 50L87 50L85.6 45.4M99.6 44.2L99.6 45.4L96.6 45.4L96.6 54L95.3 54L95.3 45.4L92.4 45.4L92.4 44.2L99.6 44.2M110.2 54L108.9 54L108 51.1L104.6 51.1L103.7 54L102.4 54L105.5 44.2L107.1 44.2L110.2 54M106.3 45.4L104.9 50L107.7 50L106.3 45.4M131.2 54L129.8 54L129 52.9Q128.4 53.5 127.7 53.8Q127 54.2 126.3 54.2L126.3 54.2Q124.9 54.2 124.2 53.4Q123.4 52.7 123.4 51.4L123.4 51.4Q123.4 49.6 125 48.6L125 48.6L125.5 48.3L125.5 48.3Q125 47.6 124.7 47.1Q124.5 46.7 124.5 46.1L124.5 46.1Q124.5 45.5 124.8 45Q125.1 44.6 125.6 44.3Q126.2 44 126.8 44L126.8 44Q127.8 44 128.4 44.6Q129 45.1 129 46.1L129 46.1Q129 46.7 128.7 47.2Q128.3 47.7 127.7 48.2L127.7 48.2L127.1 48.6L129 51.1Q129.4 50.3 129.5 49.3L129.5 49.3L130.5 49.3Q130.5 50 130.3 50.7Q130.1 51.4 129.7 52L129.7 52L131.2 54M126 47.2L126 47.2L126.5 47.8L127.3 47.3Q127.6 47.1 127.8 46.8Q127.9 46.4 127.9 46L127.9 46Q127.9 45.5 127.6 45.3Q127.3 45 126.8 45L126.8 45Q126.3 45 125.9 45.3Q125.6 45.6 125.6 46L125.6 46Q125.6 46.3 125.7 46.6Q125.8 46.9 126 47.2M124.5 51.4L124.5 51.4Q124.5 52.1 125 52.6Q125.5 53.1 126.3 53.1L126.3 53.1Q126.9 53.1 127.4 52.8Q128 52.6 128.4 52.1L128.4 52.1L126.1 49.1L125.6 49.4Q125 49.8 124.8 50.3Q124.5 50.7 124.5 51.4M145.9 54L144.6 54L144.6 44.2L148.2 44.2Q149 44.2 149.7 44.5Q150.5 44.9 150.9 45.5Q151.3 46.2 151.3 47.1L151.3 47.1Q151.3 48.1 150.9 48.8Q150.5 49.4 149.7 49.7Q149 50.1 148.2 50.1L148.2 50.1L145.9 50.1L145.9 54M145.9 45.3L145.9 49L148 49Q148.9 49 149.4 48.5Q150 48 150 47.1L150 47.1Q150 46.3 149.4 45.8Q148.9 45.3 148 45.3L148 45.3L145.9 45.3M158.3 50L158.3 50L156.2 50L156.2 54L155 54L155 44.2L158.4 44.2Q159.8 44.2 160.7 44.9Q161.5 45.5 161.5 46.9L161.5 46.9Q161.5 47.7 161.1 48.3Q160.8 48.9 159.9 49.3L159.9 49.3Q160.4 49.5 160.7 49.8Q161 50.1 161.1 50.5Q161.2 50.9 161.3 51.6L161.3 51.6L161.3 52.3Q161.3 52.7 161.4 53.1Q161.5 53.5 161.8 53.7L161.8 53.7L161.8 54L160.4 54Q160.2 53.7 160.1 53.3Q160 52.8 160 52.4L160 52.4L160 51.7Q160 50.9 159.6 50.4Q159.2 50 158.3 50M158.1 45.3L156.2 45.3L156.2 48.9L158.1 48.9Q159.1 48.9 159.6 48.5Q160.2 48.1 160.2 47L160.2 47Q160.2 46.1 159.6 45.7Q159.1 45.3 158.1 45.3L158.1 45.3M171.1 48.4L171.1 49.6L166.9 49.6L166.9 52.9L171.5 52.9L171.5 54L165.6 54L165.6 44.2L171.3 44.2L171.3 45.4L166.9 45.4L166.9 48.4L171.1 48.4M168.6 43.3L167.7 43.3L169.1 41.2L170.7 41.2L168.6 43.3M178.5 54L178.5 54L175.4 54L175.4 44.2L178.5 44.2Q179.8 44.2 180.6 44.8Q181.4 45.5 181.8 46.6Q182.3 47.7 182.3 49.1L182.3 49.1Q182.3 50.5 181.8 51.6Q181.4 52.7 180.6 53.4Q179.8 54 178.5 54M178.3 45.4L176.7 45.4L176.7 52.9L178.3 52.9Q179.7 52.9 180.3 51.9Q180.9 50.9 180.9 49.1L180.9 49.1Q180.9 47.4 180.3 46.4Q179.7 45.4 178.3 45.4L178.3 45.4M191.7 54L186.2 54L186.2 52.9L188.3 52.9L188.3 45.3L186.2 45.3L186.2 44.2L191.7 44.2L191.7 45.3L189.6 45.3L189.6 52.9L191.7 52.9L191.7 54M203 46.9L203 46.9L201.7 46.9Q201.5 46.1 201 45.6Q200.6 45.1 199.6 45.1L199.6 45.1Q198.7 45.1 198.2 45.6Q197.6 46.1 197.3 47Q197.1 48 197.1 49.1L197.1 49.1Q197.1 51.1 197.7 52.1Q198.4 53.1 199.6 53.1L199.6 53.1Q200.6 53.1 201.1 52.5Q201.6 51.9 201.8 50.7L201.8 50.7L203.1 50.7Q202.9 52.5 202 53.4Q201.1 54.3 199.6 54.3L199.6 54.3Q198.4 54.3 197.5 53.6Q196.6 53 196.2 51.9Q195.7 50.7 195.7 49.1L195.7 49.1Q195.7 48.1 195.9 47.2Q196.2 46.2 196.6 45.5Q197.1 44.8 197.8 44.4Q198.6 44 199.7 44L199.7 44Q200.7 44 201.4 44.4Q202 44.8 202.5 45.4Q202.9 46.1 203 46.9M213.2 44.2L213.2 45.4L210.3 45.4L210.3 54L209 54L209 45.4L206 45.4L206 44.2L213.2 44.2M222.7 54L217.2 54L217.2 52.9L219.3 52.9L219.3 45.3L217.2 45.3L217.2 44.2L222.7 44.2L222.7 45.3L220.6 45.3L220.6 52.9L222.7 52.9L222.7 54M230.3 44L230.3 44Q232.1 44 233.1 45.3Q234.1 46.7 234.1 49.1L234.1 49.1Q234.1 51.6 233.1 52.9Q232.1 54.3 230.3 54.3L230.3 54.3Q228.5 54.3 227.5 52.9Q226.5 51.6 226.5 49.1L226.5 49.1Q226.5 46.7 227.5 45.3Q228.5 44 230.3 44M230.3 45.1L230.3 45.1Q229.1 45.1 228.5 46.2Q227.8 47.3 227.8 49.1L227.8 49.1Q227.8 51 228.5 52Q229.1 53.1 230.3 53.1L230.3 53.1Q231.5 53.1 232.1 52Q232.7 51 232.7 49.1L232.7 49.1Q232.7 47.3 232.1 46.2Q231.5 45.1 230.3 45.1M242.7 52.1L242.7 44.2L243.9 44.2L243.9 54L242.4 54L238.6 46.2L238.6 46.2L238.6 54L237.4 54L237.4 44.2L238.8 44.2L242.7 52.1L242.7 52.1" fill="#8a8781"/><path d="M588 56l14-14m-10 0h10v10" stroke="#edebe6" stroke-opacity=".55" stroke-width="1.6" stroke-linecap="round" stroke-linejoin="round"/><path d="M64.9 306L56.2 306L37 266.2L45.5 266.2L56.6 290.2Q57.3 291.4 58 293Q58.7 294.6 59.4 296.2Q60.1 297.7 60.5 298.8L60.5 298.8L61 298.8Q61.5 297.8 62.1 296.3Q62.7 294.7 63.5 293.2Q64.2 291.6 64.8 290.2L64.8 290.2L76.1 266.2L84 266.2L64.9 306M100.3 306.7L100.3 306.7Q94.6 306.7 90.5 304.9Q86.5 303.1 84.4 299.5Q82.3 296 82.3 290.7L82.3 290.7Q82.3 285.4 84.4 281.9Q86.5 278.3 90.5 276.5Q94.6 274.7 100.3 274.7L100.3 274.7Q106.1 274.7 110.2 276.5Q114.2 278.3 116.3 281.9Q118.4 285.4 118.4 290.7L118.4 290.7Q118.4 296 116.3 299.5Q114.2 303.1 110.2 304.9Q106.1 306.7 100.3 306.7M100.3 301.4L100.3 301.4Q103.7 301.4 106.2 300.3Q108.7 299.2 110 296.9Q111.4 294.7 111.4 291.3L111.4 291.3L111.4 290.1Q111.4 286.7 110 284.5Q108.7 282.3 106.2 281.2Q103.7 280.1 100.3 280.1L100.3 280.1Q97 280.1 94.5 281.2Q92 282.3 90.7 284.5Q89.3 286.7 89.3 290.1L89.3 290.1L89.3 291.3Q89.3 294.7 90.7 296.9Q92 299.2 94.5 300.3Q97 301.4 100.3 301.4M130 270L123.2 270L123.2 264L130 264L130 270M130 306L123.2 306L123.2 275.4L130 275.4L130 306M142.8 306L136 306L136 275.4L141.4 275.4L141.9 281L142.4 281Q142.9 279.5 144 278.1Q145.2 276.7 147 275.7Q148.8 274.7 151.3 274.7L151.3 274.7Q152.3 274.7 153.3 274.9Q154.3 275 155 275.3L155 275.3L155 281.2L151.5 281.2Q149 281.2 147.4 282.1Q145.7 283 144.7 284.5Q143.7 285.9 143.2 287.6Q142.8 289.3 142.8 291L142.8 291L142.8 306" fill="#edebe6"/><path d="M57.7 361.1L50.8 361.1L36.3 330.5L43.7 330.5L50.8 346.1Q51.2 346.9 51.8 348.4Q52.4 349.8 53.1 351.4Q53.7 352.9 54.2 354.1L54.2 354.1L54.7 354.1Q55.1 352.9 55.7 351.5Q56.2 350 56.9 348.5Q57.5 347.1 57.9 346.1L57.9 346.1L65 330.5L72.1 330.5L57.7 361.1M91.3 361.8L91.3 361.8Q85.6 361.8 81.5 360.1Q77.4 358.4 75.2 354.8Q73 351.3 73 345.8L73 345.8Q73 340.5 75.2 336.9Q77.3 333.4 81.4 331.6Q85.5 329.8 91.2 329.8L91.2 329.8Q97.1 329.8 101.1 331.6Q105.1 333.4 107.1 336.8Q109 340.2 109 344.7L109 344.7L109 347.6L80.1 347.6Q80.3 350.8 81.7 352.8Q83.2 354.7 85.7 355.6Q88.3 356.5 91.6 356.5L91.6 356.5Q93.4 356.5 95.2 356Q97 355.6 98.4 354.8Q99.9 354.1 100.8 353Q101.7 351.9 101.9 350.7L101.9 350.7L108.7 350.7Q108.7 352.8 107.6 354.8Q106.5 356.8 104.4 358.4Q102.2 359.9 98.9 360.9Q95.7 361.8 91.3 361.8M80.1 342.9L80.1 342.9L101.8 342.9Q101.8 340.7 101 339.3Q100.1 337.8 98.6 336.9Q97.1 336 95.2 335.6Q93.2 335.2 91.2 335.2L91.2 335.2Q88.1 335.2 85.7 336Q83.3 336.9 81.8 338.6Q80.4 340.3 80.1 342.9M120.6 361.1L113.8 361.1L113.8 330.5L119.2 330.5L119.7 335.9L120.2 335.9Q121.9 333.5 124.1 332.2Q126.2 330.9 128.7 330.4Q131.1 329.8 133.3 329.8L133.3 329.8Q137.5 329.8 140.3 331.1Q143.1 332.4 144.6 335Q146 337.7 146 341.9L146 341.9L146 361.1L139.2 361.1L139.2 343.1Q139.2 340.9 138.6 339.4Q138 337.9 136.9 337.1Q135.9 336.2 134.4 335.9Q132.9 335.6 131 335.6L131 335.6Q128.3 335.6 126 336.7Q123.6 337.8 122.1 339.8Q120.6 341.8 120.6 344.5L120.6 344.5L120.6 361.1M158.4 325.1L151.7 325.1L151.7 319.1L158.4 319.1L158.4 325.1M158.4 361.1L151.7 361.1L151.7 330.5L158.4 330.5L158.4 361.1M171.2 361.1L164.4 361.1L164.4 330.5L169.9 330.5L170.3 336.1L170.8 336.1Q171.3 334.6 172.4 333.2Q173.6 331.8 175.4 330.8Q177.2 329.8 179.7 329.8L179.7 329.8Q180.7 329.8 181.7 330Q182.7 330.1 183.4 330.4L183.4 330.4L183.4 336.3L180 336.3Q177.5 336.3 175.8 337.2Q174.1 338.1 173.1 339.6Q172.1 341 171.7 342.7Q171.2 344.4 171.2 346.1L171.2 346.1L171.2 361.1" fill="#edebe6"/><path d="M188.7 361.1L180.4 361.1L180.4 353.1L188.7 353.1L188.7 361.1" fill="#ff5a1f"/></g><rect x=".5" y=".5" width="639" height="399" rx="21.5" stroke="#edebe6" stroke-opacity="0.17"/></svg>
